<?xml version="1.0" encoding="UTF-8" standalone="no"?>
<!DOCTYPE svg PUBLIC "-//W3C//DTD SVG 1.1//EN" "http://www.w3.org/Graphics/SVG/1.1/DTD/svg11.dtd">
<svg width="100%" height="100%" viewBox="0 0 498 598" version="1.1" xmlns="http://www.w3.org/2000/svg" xmlns:xlink="http://www.w3.org/1999/xlink" xml:space="preserve" xmlns:serif="http://www.serif.com/" style="fill-rule:evenodd;clip-rule:evenodd;stroke-linejoin:round;stroke-miterlimit:2;">
    <g transform="matrix(1,0,0,1,-4273.28,-5519.36)">
        <g transform="matrix(1.15227,0,0,1.15227,4231.7,5527.7)">
            <g>
                <g transform="matrix(0.867853,0,0,0.867853,-3672.49,-4797.23)">
                    <path d="M4690.15,5722.79L4712.36,5722.79C4717.38,5722.79 4721.44,5726.85 4721.44,5731.86C4721.44,5736.88 4717.38,5740.94 4712.36,5740.94L4690.15,5740.94L4690.15,5722.79ZM4690.15,5768.16L4712.36,5768.16C4717.38,5768.16 4721.44,5772.22 4721.44,5777.23C4721.44,5782.25 4717.38,5786.31 4712.36,5786.31L4690.15,5786.31L4690.15,5768.16ZM4690.15,5813.53L4712.36,5813.53C4717.38,5813.53 4721.44,5817.59 4721.44,5822.6C4721.44,5827.61 4717.38,5831.68 4712.36,5831.68L4690.15,5831.68L4690.15,5813.53ZM4690.15,5858.9L4712.36,5858.9C4717.38,5858.9 4721.44,5862.97 4721.44,5867.98C4721.44,5872.98 4717.38,5877.05 4712.36,5877.05L4690.15,5877.05L4690.15,5858.9ZM4690.15,5904.27L4712.36,5904.27C4717.38,5904.27 4721.44,5908.34 4721.44,5913.35C4721.44,5918.36 4717.38,5922.42 4712.36,5922.42L4690.15,5922.42L4690.15,5904.27Z" style="fill:white;"/>
                    <path d="M4690.15,5714.46L4712.36,5714.46C4721.98,5714.46 4729.77,5722.24 4729.77,5731.86C4729.77,5741.48 4721.98,5749.27 4712.36,5749.27L4690.15,5749.27C4685.55,5749.27 4681.81,5745.54 4681.81,5740.94L4681.81,5722.79C4681.81,5718.19 4685.55,5714.46 4690.15,5714.46ZM4690.15,5722.79L4690.15,5740.94L4712.36,5740.94C4717.38,5740.94 4721.44,5736.88 4721.44,5731.86C4721.44,5726.85 4717.38,5722.79 4712.36,5722.79L4690.15,5722.79ZM4690.15,5759.82L4712.36,5759.82C4721.98,5759.82 4729.77,5767.61 4729.77,5777.23C4729.77,5786.85 4721.98,5794.64 4712.36,5794.64L4690.15,5794.64C4685.55,5794.64 4681.81,5790.91 4681.81,5786.31L4681.81,5768.16C4681.81,5763.55 4685.55,5759.82 4690.15,5759.82ZM4690.15,5768.16L4690.15,5786.31L4712.36,5786.31C4717.38,5786.31 4721.44,5782.25 4721.44,5777.23C4721.44,5772.22 4717.38,5768.16 4712.36,5768.16L4690.15,5768.16ZM4690.15,5805.19L4712.36,5805.19C4721.98,5805.19 4729.77,5812.98 4729.77,5822.6C4729.77,5832.21 4721.98,5840.01 4712.36,5840.01L4690.15,5840.01C4685.55,5840.01 4681.81,5836.28 4681.81,5831.68L4681.81,5813.53C4681.81,5808.93 4685.55,5805.19 4690.15,5805.19ZM4690.15,5813.53L4690.15,5831.68L4712.36,5831.68C4717.38,5831.68 4721.44,5827.61 4721.44,5822.6C4721.44,5817.59 4717.38,5813.53 4712.36,5813.53L4690.15,5813.53ZM4690.15,5850.57L4712.36,5850.57C4721.98,5850.57 4729.77,5858.36 4729.77,5867.98C4729.77,5877.59 4721.98,5885.38 4712.36,5885.38L4690.15,5885.38C4685.55,5885.38 4681.81,5881.65 4681.81,5877.05L4681.81,5858.9C4681.81,5854.3 4685.55,5850.57 4690.15,5850.57ZM4690.15,5858.9L4690.15,5877.05L4712.36,5877.05C4717.38,5877.05 4721.44,5872.98 4721.44,5867.98C4721.44,5862.97 4717.38,5858.9 4712.36,5858.9L4690.15,5858.9ZM4690.15,5895.94L4712.36,5895.94C4721.98,5895.94 4729.77,5903.74 4729.77,5913.35C4729.77,5922.96 4721.98,5930.76 4712.36,5930.76L4690.15,5930.76C4685.55,5930.76 4681.81,5927.02 4681.81,5922.42L4681.81,5904.27C4681.81,5899.67 4685.55,5895.94 4690.15,5895.94ZM4690.15,5904.27L4690.15,5922.42L4712.36,5922.42C4717.38,5922.42 4721.44,5918.36 4721.44,5913.35C4721.44,5908.34 4717.38,5904.27 4712.36,5904.27L4690.15,5904.27Z"/>
                </g>
                <g transform="matrix(0.867853,0,0,0.867853,-3672.49,-4797.23)">
                    <path d="M4690.15,5922.42L4690.07,5922.42L4690.01,6083.48C4690.01,6097.25 4678.79,6108.44 4665.01,6108.44L4306.62,6108.44C4292.84,6108.44 4281.62,6097.24 4281.62,6083.46L4281.76,5625.22C4281.76,5611.43 4292.97,5600.29 4306.76,5600.29L4575.07,5600.29C4575.54,5600.21 4576.03,5600.17 4576.52,5600.17C4577.76,5600.17 4578.94,5600.42 4580.02,5600.87C4581.19,5601.31 4582.27,5601.99 4583.18,5602.9L4687.5,5707.44C4689.2,5709.14 4690.15,5711.43 4690.15,5713.83L4690.15,5722.79L4690.15,5722.79L4690.15,5740.94L4690.14,5740.94L4690.13,5768.16L4690.15,5768.16L4690.15,5786.31L4690.12,5786.31L4690.11,5813.53L4690.15,5813.53L4690.15,5831.68L4690.11,5831.68L4690.1,5858.9L4690.15,5858.9L4690.15,5877.05L4690.09,5877.05L4690.08,5904.27L4690.15,5904.27L4690.15,5922.42ZM4567.44,5618.44L4306.76,5618.44C4302.98,5618.44 4299.91,5621.46 4299.91,5625.23L4299.77,6083.5C4299.77,6087.28 4302.84,6090.3 4306.62,6090.3L4665.01,6090.3C4668.78,6090.3 4671.86,6087.25 4671.86,6083.47L4671.94,5869.15C4671.89,5868.77 4671.86,5868.37 4671.86,5867.98C4671.86,5867.57 4671.89,5867.18 4671.94,5866.79L4671.95,5823.9C4671.89,5823.48 4671.86,5823.04 4671.86,5822.6C4671.86,5822.16 4671.89,5821.73 4671.95,5821.3L4671.97,5778.63C4671.9,5778.18 4671.86,5777.71 4671.86,5777.23C4671.86,5776.75 4671.9,5776.28 4671.97,5775.82L4671.98,5733.37C4671.9,5732.88 4671.86,5732.38 4671.86,5731.86C4671.86,5731.35 4671.9,5730.85 4671.98,5730.36L4671.99,5717.62L4585.6,5631.08L4585.6,5687.28C4585.6,5696.91 4593.66,5704.64 4603.28,5704.64L4640.12,5704.64C4645.14,5704.64 4649.2,5708.7 4649.2,5713.72C4649.2,5718.73 4645.13,5722.79 4640.12,5722.79L4603.28,5722.79C4583.64,5722.79 4567.44,5706.92 4567.44,5687.28L4567.44,5618.44Z" style="fill:white;"/>
                    <path d="M4690.15,5912.61L4698.48,5904.27L4698.48,5922.42C4698.48,5922.81 4698.45,5923.18 4698.4,5923.55L4698.35,6083.48C4698.34,6101.85 4683.39,6116.77 4665.01,6116.77L4306.62,6116.77C4288.24,6116.77 4273.28,6101.84 4273.28,6083.46L4273.43,5625.22C4273.43,5606.83 4288.37,5591.96 4306.76,5591.96C4306.76,5591.96 4561.02,5591.96 4574.51,5591.96C4575.17,5591.88 4575.84,5591.84 4576.52,5591.84C4578.85,5591.84 4581.07,5592.3 4583.07,5593.12C4585.3,5593.97 4587.34,5595.28 4589.07,5597.01L4589.07,5597.01L4693.4,5701.56C4696.66,5704.82 4698.48,5709.21 4698.48,5713.83L4698.48,5722.79L4690.15,5731.11L4690.15,5731.12L4690.15,5722.79L4690.15,5722.79L4690.15,5713.83C4690.15,5711.43 4689.2,5709.14 4687.5,5707.44L4583.18,5602.9C4582.27,5601.99 4581.19,5601.31 4580.02,5600.87C4578.94,5600.42 4577.76,5600.17 4576.52,5600.17C4576.03,5600.17 4575.54,5600.21 4575.07,5600.29L4306.76,5600.29C4292.97,5600.29 4281.76,5611.43 4281.76,5625.22L4281.62,6083.46C4281.62,6097.24 4292.84,6108.44 4306.62,6108.44L4665.01,6108.44C4678.79,6108.44 4690.01,6097.25 4690.01,6083.48L4690.07,5930.76C4690.07,5930.76 4690.07,5930.76 4690.07,5930.76C4690.07,5930.76 4690.07,5930.76 4690.07,5930.76L4690.07,5922.42L4690.15,5922.42L4690.15,5912.61ZM4698.48,5722.79L4698.48,5722.79L4698.48,5740.94C4698.48,5741.08 4698.48,5741.21 4698.47,5741.35L4698.46,5768.16L4690.18,5776.44C4690.16,5776.47 4690.15,5776.49 4690.15,5776.49L4690.15,5768.16L4690.13,5768.16L4690.14,5749.27C4690.14,5749.27 4690.14,5749.27 4690.14,5749.27C4690.14,5749.27 4690.14,5749.27 4690.14,5749.27L4690.14,5740.94L4690.15,5740.94L4690.15,5731.12L4698.48,5722.79ZM4690.15,5776.49L4698.48,5768.16L4698.48,5786.31C4698.48,5786.53 4698.47,5786.76 4698.45,5786.98L4698.44,5813.53L4690.21,5821.76C4690.17,5821.83 4690.15,5821.86 4690.15,5821.86L4690.15,5813.53L4690.11,5813.53L4690.12,5794.64C4690.12,5794.64 4690.12,5794.64 4690.12,5794.64C4690.12,5794.64 4690.12,5794.64 4690.12,5794.64L4690.12,5786.31L4690.15,5786.31L4690.15,5776.49ZM4690.15,5821.86L4698.48,5813.53L4698.48,5831.68C4698.48,5831.97 4698.47,5832.25 4698.44,5832.53L4698.43,5858.9L4690.22,5867.11C4690.17,5867.19 4690.15,5867.23 4690.15,5867.23L4690.15,5858.9L4690.1,5858.9L4690.1,5840.01C4690.1,5840.01 4690.1,5840.01 4690.11,5840.01C4690.1,5840.01 4690.1,5840.01 4690.1,5840.01L4690.11,5831.68L4690.15,5831.68L4690.15,5821.86ZM4690.15,5867.23L4698.48,5858.9L4698.48,5877.05C4698.48,5877.39 4698.46,5877.72 4698.42,5878.05L4698.41,5904.27L4690.23,5912.46C4690.18,5912.55 4690.15,5912.61 4690.15,5912.61L4690.15,5904.27L4690.08,5904.27L4690.09,5885.38C4690.09,5885.38 4690.09,5885.38 4690.09,5885.38C4690.09,5885.38 4690.09,5885.38 4690.09,5885.38L4690.09,5877.05L4690.15,5877.05L4690.15,5867.23ZM4567.44,5618.44L4567.44,5687.28C4567.44,5706.92 4583.64,5722.79 4603.28,5722.79L4640.12,5722.79C4645.13,5722.79 4649.2,5718.73 4649.2,5713.72C4649.2,5708.7 4645.14,5704.64 4640.12,5704.64L4603.28,5704.64C4593.66,5704.64 4585.6,5696.91 4585.6,5687.28L4585.6,5631.08L4671.99,5717.62L4671.98,5730.36C4671.9,5730.85 4671.86,5731.35 4671.86,5731.86C4671.86,5732.38 4671.9,5732.88 4671.98,5733.37L4671.97,5775.82C4671.9,5776.28 4671.86,5776.75 4671.86,5777.23C4671.86,5777.71 4671.9,5778.18 4671.97,5778.63L4671.95,5821.3C4671.89,5821.73 4671.86,5822.16 4671.86,5822.6C4671.86,5823.04 4671.89,5823.48 4671.95,5823.9L4671.94,5866.79C4671.89,5867.18 4671.86,5867.57 4671.86,5867.98C4671.86,5868.37 4671.89,5868.77 4671.94,5869.15L4671.86,6083.47C4671.86,6087.25 4668.78,6090.3 4665.01,6090.3L4306.62,6090.3C4302.84,6090.3 4299.77,6087.28 4299.77,6083.5L4299.91,5625.23C4299.91,5621.46 4302.98,5618.44 4306.76,5618.44L4567.44,5618.44ZM4308.1,6081.97L4663.53,6081.97C4663.53,6063.44 4663.6,5879.91 4663.6,5869.61C4663.55,5869.07 4663.53,5868.53 4663.53,5867.98C4663.53,5867.42 4663.55,5866.87 4663.6,5866.34C4663.6,5866.34 4663.62,5824.39 4663.62,5824.4C4663.56,5823.81 4663.53,5823.21 4663.53,5822.6C4663.53,5821.99 4663.56,5821.39 4663.62,5820.8C4663.62,5820.8 4663.63,5779.17 4663.63,5779.17C4663.56,5778.54 4663.53,5777.89 4663.53,5777.23C4663.53,5776.57 4663.56,5775.92 4663.63,5775.28C4663.63,5775.28 4663.65,5733.94 4663.65,5733.94C4663.57,5733.26 4663.53,5732.57 4663.53,5731.86C4663.53,5731.16 4663.57,5730.46 4663.65,5729.78L4663.65,5721.07L4657.49,5714.9C4656.89,5723.97 4649.34,5731.12 4640.12,5731.12L4603.28,5731.12C4579.05,5731.12 4559.11,5711.51 4559.11,5687.28L4559.11,5626.77L4308.24,5626.77L4308.1,6081.97ZM4638.94,5696.31L4593.93,5651.22L4593.93,5687.28C4593.93,5692.33 4598.23,5696.31 4603.28,5696.31L4638.94,5696.31Z"/>
                </g>
                <g transform="matrix(0.867853,0,0,0.867853,-3872.99,-5601.55)">
                    <path d="M4584.56,6949.03L4562.47,6949.03C4557.46,6949.03 4553.4,6953.09 4553.4,6958.1C4553.4,6963.11 4557.46,6967.18 4562.47,6967.18L4584.56,6967.18C4589.57,6967.18 4593.64,6963.11 4593.64,6958.1C4593.64,6953.09 4589.57,6949.03 4584.56,6949.03Z" style="fill:white;"/>
                    <path d="M4584.56,6940.69C4594.16,6940.69 4601.97,6948.49 4601.97,6958.1C4601.97,6967.71 4594.16,6975.51 4584.56,6975.51L4562.47,6975.51C4552.86,6975.51 4545.07,6967.71 4545.07,6958.1C4545.07,6948.49 4552.86,6940.69 4562.47,6940.69L4584.56,6940.69ZM4584.56,6949.03L4562.47,6949.03C4557.46,6949.03 4553.4,6953.09 4553.4,6958.1C4553.4,6963.11 4557.46,6967.18 4562.47,6967.18L4584.56,6967.18C4589.57,6967.18 4593.64,6963.11 4593.64,6958.1C4593.64,6953.09 4589.57,6949.03 4584.56,6949.03Z"/>
                </g>
                <g transform="matrix(0.867853,0,0,0.867853,-3872.99,-5601.55)">
                    <path d="M4871.01,6949.03L4625.32,6949.03C4620.3,6949.03 4616.25,6953.09 4616.25,6958.1C4616.25,6963.11 4620.31,6967.18 4625.32,6967.18L4871.01,6967.18C4876.02,6967.18 4880.08,6963.11 4880.08,6958.1C4880.08,6953.09 4876.02,6949.03 4871.01,6949.03Z" style="fill:white;"/>
                    <path d="M4871.01,6940.69C4880.62,6940.69 4888.41,6948.49 4888.41,6958.1C4888.41,6967.71 4880.62,6975.51 4871.01,6975.51L4625.32,6975.51C4615.7,6975.51 4607.91,6967.71 4607.91,6958.1C4607.91,6948.49 4615.69,6940.69 4625.32,6940.69L4871.01,6940.69ZM4871.01,6949.03L4625.32,6949.03C4620.3,6949.03 4616.25,6953.09 4616.25,6958.1C4616.25,6963.11 4620.31,6967.18 4625.32,6967.18L4871.01,6967.18C4876.02,6967.18 4880.08,6963.11 4880.08,6958.1C4880.08,6953.09 4876.02,6949.03 4871.01,6949.03Z"/>
                </g>
                <g transform="matrix(0.867853,0,0,0.867853,-3872.99,-5601.55)">
                    <path d="M4871.06,6472.64L4871.06,6541.69C4871.06,6561.33 4887.05,6576.99 4906.68,6576.99L4943.52,6576.99C4948.53,6576.99 4952.6,6572.93 4952.6,6567.92C4952.6,6562.9 4948.54,6558.84 4943.53,6558.84L4906.69,6558.84C4897.06,6558.84 4889.21,6551.32 4889.21,6541.69L4889.21,6485.5L4975.4,6571.87L4975.26,6937.77C4975.26,6941.54 4972.19,6944.49 4968.41,6944.49L4940.11,6944.49C4935.09,6944.49 4931.03,6948.56 4931.03,6953.57C4931.03,6958.58 4935.09,6962.64 4940.11,6962.64L4968.41,6962.64C4982.2,6962.64 4993.41,6951.55 4993.4,6937.77L4993.55,6568.22C4993.55,6565.81 4992.59,6563.5 4990.9,6561.8L4886.57,6457.21C4884.86,6455.5 4882.55,6454.49 4880.15,6454.49L4610.15,6454.49C4596.37,6454.49 4585.22,6465.8 4585.22,6479.59L4585.22,6507.89C4585.22,6512.91 4589.28,6516.97 4594.3,6516.97C4599.31,6516.97 4603.37,6512.9 4603.37,6507.89L4603.37,6479.59C4603.37,6475.81 4606.38,6472.64 4610.16,6472.64L4871.06,6472.64Z" style="fill:white;"/>
                    <path d="M4966.93,6936.16L4967.06,6575.31L4960.9,6569.13C4960.27,6578.18 4952.73,6585.32 4943.52,6585.32L4906.68,6585.32C4882.44,6585.32 4862.73,6565.95 4862.73,6541.69L4862.73,6480.98L4611.7,6480.98L4611.7,6507.89C4611.7,6517.5 4603.91,6525.3 4594.3,6525.3C4584.68,6525.3 4576.89,6517.51 4576.89,6507.89L4576.89,6479.59C4576.89,6461.21 4591.78,6446.16 4610.15,6446.16L4880.15,6446.16C4884.75,6446.16 4889.19,6448.04 4892.46,6451.31L4892.47,6451.32L4996.8,6555.91L4996.81,6555.92C5000.04,6559.18 5001.88,6563.61 5001.88,6568.22L5001.74,6937.76C5001.74,6956.15 4986.81,6970.98 4968.41,6970.98L4940.11,6970.98C4930.49,6970.98 4922.7,6963.18 4922.7,6953.57C4922.7,6943.96 4930.49,6936.16 4940.11,6936.16L4966.93,6936.16ZM4942.31,6550.51L4897.54,6505.65L4897.54,6541.69C4897.54,6546.69 4901.69,6550.51 4906.69,6550.51L4942.31,6550.51ZM4871.06,6472.64L4871.06,6541.69C4871.06,6561.33 4887.05,6576.99 4906.68,6576.99L4943.52,6576.99C4948.53,6576.99 4952.6,6572.93 4952.6,6567.92C4952.6,6562.9 4948.54,6558.84 4943.53,6558.84L4906.69,6558.84C4897.06,6558.84 4889.21,6551.32 4889.21,6541.69L4889.21,6485.5L4975.4,6571.87L4975.26,6937.77C4975.26,6941.54 4972.19,6944.49 4968.41,6944.49L4940.11,6944.49C4935.09,6944.49 4931.03,6948.56 4931.03,6953.57C4931.03,6958.58 4935.09,6962.64 4940.11,6962.64L4968.41,6962.64C4982.2,6962.64 4993.41,6951.55 4993.4,6937.77L4993.55,6568.22C4993.55,6565.81 4992.59,6563.5 4990.9,6561.8L4886.57,6457.21C4884.86,6455.5 4882.55,6454.49 4880.15,6454.49L4610.15,6454.49C4596.37,6454.49 4585.22,6465.8 4585.22,6479.59L4585.22,6507.89C4585.22,6512.91 4589.28,6516.97 4594.3,6516.97C4599.31,6516.97 4603.37,6512.9 4603.37,6507.89L4603.37,6479.59C4603.37,6475.81 4606.38,6472.64 4610.16,6472.64L4871.06,6472.64Z"/>
                </g>
                <g transform="matrix(0.867853,0,0,0.867853,-3872.99,-5601.55)">
                    <path d="M4871.01,6903.66L4562.48,6903.66C4557.47,6903.66 4553.4,6907.72 4553.4,6912.73C4553.4,6917.74 4557.47,6921.81 4562.48,6921.81L4871.01,6921.81C4876.02,6921.81 4880.08,6917.74 4880.08,6912.73C4880.08,6907.72 4876.02,6903.66 4871.01,6903.66Z" style="fill:white;"/>
                    <path d="M4871.01,6895.33C4880.62,6895.33 4888.41,6903.12 4888.41,6912.73C4888.41,6922.35 4880.62,6930.14 4871.01,6930.14L4562.48,6930.14C4552.87,6930.14 4545.07,6922.35 4545.07,6912.73C4545.07,6903.12 4552.87,6895.33 4562.48,6895.33L4871.01,6895.33ZM4871.01,6903.66L4562.48,6903.66C4557.47,6903.66 4553.4,6907.72 4553.4,6912.73C4553.4,6917.74 4557.47,6921.81 4562.48,6921.81L4871.01,6921.81C4876.02,6921.81 4880.08,6917.74 4880.08,6912.73C4880.08,6907.72 4876.02,6903.66 4871.01,6903.66Z"/>
                </g>
                <g transform="matrix(0.867853,0,0,0.867853,-3872.99,-5601.55)">
                    <path d="M4943.39,6876.43L4940.11,6876.43C4935.09,6876.43 4931.03,6880.5 4931.03,6885.51C4931.03,6890.52 4935.09,6894.58 4940.11,6894.58L4943.39,6894.58C4948.4,6894.58 4952.46,6890.52 4952.46,6885.51C4952.46,6880.5 4948.4,6876.43 4943.39,6876.43Z" style="fill:white;"/>
                    <path d="M4943.39,6868.1C4953.01,6868.1 4960.79,6875.9 4960.79,6885.51C4960.79,6895.12 4953.01,6902.92 4943.39,6902.92L4940.11,6902.92C4930.49,6902.92 4922.7,6895.12 4922.7,6885.51C4922.7,6875.9 4930.49,6868.1 4940.11,6868.1L4943.39,6868.1ZM4943.39,6876.43L4940.11,6876.43C4935.09,6876.43 4931.03,6880.5 4931.03,6885.51C4931.03,6890.52 4935.09,6894.58 4940.11,6894.58L4943.39,6894.58C4948.4,6894.58 4952.46,6890.52 4952.46,6885.51C4952.46,6880.5 4948.4,6876.43 4943.39,6876.43Z"/>
                </g>
                <g transform="matrix(0.867853,0,0,0.867853,-3872.99,-5601.55)">
                    <path d="M4871.01,6858.29L4802.17,6858.29C4797.15,6858.29 4793.09,6862.35 4793.09,6867.36C4793.09,6872.37 4797.15,6876.44 4802.17,6876.44L4871.01,6876.44C4876.02,6876.44 4880.08,6872.37 4880.08,6867.36C4880.08,6862.35 4876.02,6858.29 4871.01,6858.29Z" style="fill:white;"/>
                    <path d="M4871.01,6849.95C4880.62,6849.95 4888.41,6857.75 4888.41,6867.36C4888.41,6876.97 4880.62,6884.77 4871.01,6884.77L4802.17,6884.77C4792.55,6884.77 4784.76,6876.97 4784.76,6867.36C4784.76,6857.75 4792.55,6849.95 4802.17,6849.95L4871.01,6849.95ZM4871.01,6858.29L4802.17,6858.29C4797.15,6858.29 4793.09,6862.35 4793.09,6867.36C4793.09,6872.37 4797.15,6876.44 4802.17,6876.44L4871.01,6876.44C4876.02,6876.44 4880.08,6872.37 4880.08,6867.36C4880.08,6862.35 4876.02,6858.29 4871.01,6858.29Z"/>
                </g>
                <g transform="matrix(0.867853,0,0,0.867853,-3872.99,-5601.55)">
                    <path d="M4761.41,6858.29L4562.48,6858.29C4557.47,6858.29 4553.4,6862.35 4553.4,6867.36C4553.4,6872.37 4557.47,6876.44 4562.48,6876.44L4761.41,6876.44C4766.42,6876.44 4770.49,6872.37 4770.49,6867.36C4770.49,6862.35 4766.42,6858.29 4761.41,6858.29Z" style="fill:white;"/>
                    <path d="M4761.41,6849.95C4771.01,6849.95 4778.82,6857.75 4778.82,6867.36C4778.82,6876.97 4771.01,6884.77 4761.41,6884.77L4562.48,6884.77C4552.87,6884.77 4545.07,6876.97 4545.07,6867.36C4545.07,6857.75 4552.87,6849.95 4562.48,6849.95L4761.41,6849.95ZM4761.41,6858.29L4562.48,6858.29C4557.47,6858.29 4553.4,6862.35 4553.4,6867.36C4553.4,6872.37 4557.47,6876.44 4562.48,6876.44L4761.41,6876.44C4766.42,6876.44 4770.49,6872.37 4770.49,6867.36C4770.49,6862.35 4766.42,6858.29 4761.41,6858.29Z"/>
                </g>
                <g transform="matrix(0.867853,0,0,0.867853,-3872.99,-5601.55)">
                    <path d="M4584.56,6812.92L4562.47,6812.92C4557.46,6812.92 4553.4,6816.98 4553.4,6821.99C4553.4,6827 4557.46,6831.07 4562.47,6831.07L4584.56,6831.07C4589.57,6831.07 4593.64,6827 4593.64,6821.99C4593.64,6816.98 4589.57,6812.92 4584.56,6812.92Z" style="fill:white;"/>
                    <path d="M4584.56,6804.58C4594.16,6804.58 4601.97,6812.38 4601.97,6821.99C4601.97,6831.6 4594.16,6839.4 4584.56,6839.4L4562.47,6839.4C4552.86,6839.4 4545.07,6831.6 4545.07,6821.99C4545.07,6812.38 4552.86,6804.58 4562.47,6804.58L4584.56,6804.58ZM4584.56,6812.92L4562.47,6812.92C4557.46,6812.92 4553.4,6816.98 4553.4,6821.99C4553.4,6827 4557.46,6831.07 4562.47,6831.07L4584.56,6831.07C4589.57,6831.07 4593.64,6827 4593.64,6821.99C4593.64,6816.98 4589.57,6812.92 4584.56,6812.92Z"/>
                </g>
                <g transform="matrix(0.867853,0,0,0.867853,-3872.99,-5601.55)">
                    <path d="M4871.01,6812.92L4625.32,6812.92C4620.3,6812.92 4616.25,6816.98 4616.25,6821.99C4616.25,6827 4620.31,6831.07 4625.32,6831.07L4871.01,6831.07C4876.02,6831.07 4880.08,6827 4880.08,6821.99C4880.08,6816.98 4876.02,6812.92 4871.01,6812.92Z" style="fill:white;"/>
                    <path d="M4871.01,6804.58C4880.62,6804.58 4888.41,6812.38 4888.41,6821.99C4888.41,6831.6 4880.62,6839.4 4871.01,6839.4L4625.32,6839.4C4615.7,6839.4 4607.91,6831.6 4607.91,6821.99C4607.91,6812.38 4615.69,6804.58 4625.32,6804.58L4871.01,6804.58ZM4871.01,6812.92L4625.32,6812.92C4620.3,6812.92 4616.25,6816.98 4616.25,6821.99C4616.25,6827 4620.31,6831.07 4625.32,6831.07L4871.01,6831.07C4876.02,6831.07 4880.08,6827 4880.08,6821.99C4880.08,6816.98 4876.02,6812.92 4871.01,6812.92Z"/>
                </g>
                <g transform="matrix(0.867853,0,0,0.867853,-3872.99,-5601.55)">
                    <path d="M4871.01,6767.54L4562.48,6767.54C4557.47,6767.54 4553.4,6771.61 4553.4,6776.62C4553.4,6781.63 4557.47,6785.69 4562.48,6785.69L4871.01,6785.69C4876.02,6785.69 4880.08,6781.63 4880.08,6776.62C4880.08,6771.61 4876.02,6767.54 4871.01,6767.54Z" style="fill:white;"/>
                    <path d="M4871.01,6759.21C4880.62,6759.21 4888.41,6767.01 4888.41,6776.62C4888.41,6786.23 4880.62,6794.03 4871.01,6794.03L4562.48,6794.03C4552.87,6794.03 4545.07,6786.23 4545.07,6776.62C4545.07,6767.01 4552.87,6759.21 4562.48,6759.21L4871.01,6759.21ZM4871.01,6767.54L4562.48,6767.54C4557.47,6767.54 4553.4,6771.61 4553.4,6776.62C4553.4,6781.63 4557.47,6785.69 4562.48,6785.69L4871.01,6785.69C4876.02,6785.69 4880.08,6781.63 4880.08,6776.62C4880.08,6771.61 4876.02,6767.54 4871.01,6767.54Z"/>
                </g>
                <g transform="matrix(0.867853,0,0,0.867853,-3872.99,-5601.55)">
                    <path d="M4871.01,6722.18L4802.17,6722.18C4797.15,6722.18 4793.09,6726.24 4793.09,6731.25C4793.09,6736.27 4797.15,6740.33 4802.17,6740.33L4871.01,6740.33C4876.02,6740.33 4880.08,6736.27 4880.08,6731.25C4880.08,6726.24 4876.02,6722.18 4871.01,6722.18Z" style="fill:white;"/>
                    <path d="M4871.01,6713.84C4880.62,6713.84 4888.41,6721.63 4888.41,6731.25C4888.41,6740.87 4880.62,6748.66 4871.01,6748.66L4802.17,6748.66C4792.55,6748.66 4784.76,6740.87 4784.76,6731.25C4784.76,6721.63 4792.55,6713.84 4802.17,6713.84L4871.01,6713.84ZM4871.01,6722.18L4802.17,6722.18C4797.15,6722.18 4793.09,6726.24 4793.09,6731.25C4793.09,6736.27 4797.15,6740.33 4802.17,6740.33L4871.01,6740.33C4876.02,6740.33 4880.08,6736.27 4880.08,6731.25C4880.08,6726.24 4876.02,6722.18 4871.01,6722.18Z"/>
                </g>
                <g transform="matrix(0.867853,0,0,0.867853,-3872.99,-5601.55)">
                    <path d="M4761.41,6722.18L4562.48,6722.18C4557.47,6722.18 4553.4,6726.24 4553.4,6731.25C4553.4,6736.27 4557.47,6740.33 4562.48,6740.33L4761.41,6740.33C4766.42,6740.33 4770.49,6736.27 4770.49,6731.25C4770.49,6726.24 4766.42,6722.18 4761.41,6722.18Z" style="fill:white;"/>
                    <path d="M4761.41,6713.84C4771.01,6713.84 4778.82,6721.63 4778.82,6731.25C4778.82,6740.87 4771.01,6748.66 4761.41,6748.66L4562.48,6748.66C4552.87,6748.66 4545.07,6740.87 4545.07,6731.25C4545.07,6721.63 4552.87,6713.84 4562.48,6713.84L4761.41,6713.84ZM4761.41,6722.18L4562.48,6722.18C4557.47,6722.18 4553.4,6726.24 4553.4,6731.25C4553.4,6736.27 4557.47,6740.33 4562.48,6740.33L4761.41,6740.33C4766.42,6740.33 4770.49,6736.27 4770.49,6731.25C4770.49,6726.24 4766.42,6722.18 4761.41,6722.18Z"/>
                </g>
                <g transform="matrix(0.867853,0,0,0.867853,-3872.99,-5601.55)">
                    <path d="M4584.56,6676.81L4562.47,6676.81C4557.46,6676.81 4553.4,6680.87 4553.4,6685.88C4553.4,6690.9 4557.46,6694.96 4562.47,6694.96L4584.56,6694.96C4589.57,6694.96 4593.64,6690.9 4593.64,6685.88C4593.64,6680.87 4589.57,6676.81 4584.56,6676.81Z" style="fill:white;"/>
                    <path d="M4584.56,6668.47C4594.16,6668.47 4601.97,6676.26 4601.97,6685.88C4601.97,6695.5 4594.16,6703.29 4584.56,6703.29L4562.47,6703.29C4552.86,6703.29 4545.07,6695.5 4545.07,6685.88C4545.07,6676.26 4552.86,6668.47 4562.47,6668.47L4584.56,6668.47ZM4584.56,6676.81L4562.47,6676.81C4557.46,6676.81 4553.4,6680.87 4553.4,6685.88C4553.4,6690.9 4557.46,6694.96 4562.47,6694.96L4584.56,6694.96C4589.57,6694.96 4593.64,6690.9 4593.64,6685.88C4593.64,6680.87 4589.57,6676.81 4584.56,6676.81Z"/>
                </g>
                <g transform="matrix(0.867853,0,0,0.867853,-3872.99,-5601.55)">
                    <path d="M4871.01,6676.81L4625.32,6676.81C4620.3,6676.81 4616.25,6680.87 4616.25,6685.88C4616.25,6690.9 4620.31,6694.96 4625.32,6694.96L4871.01,6694.96C4876.02,6694.96 4880.08,6690.9 4880.08,6685.88C4880.08,6680.87 4876.02,6676.81 4871.01,6676.81Z" style="fill:white;"/>
                    <path d="M4871.01,6668.47C4880.62,6668.47 4888.41,6676.26 4888.41,6685.88C4888.41,6695.5 4880.62,6703.29 4871.01,6703.29L4625.32,6703.29C4615.7,6703.29 4607.91,6695.5 4607.91,6685.88C4607.91,6676.26 4615.69,6668.47 4625.32,6668.47L4871.01,6668.47ZM4871.01,6676.81L4625.32,6676.81C4620.3,6676.81 4616.25,6680.87 4616.25,6685.88C4616.25,6690.9 4620.31,6694.96 4625.32,6694.96L4871.01,6694.96C4876.02,6694.96 4880.08,6690.9 4880.08,6685.88C4880.08,6680.87 4876.02,6676.81 4871.01,6676.81Z"/>
                </g>
                <g transform="matrix(0.867853,0,0,0.867853,-3872.99,-5601.55)">
                    <path d="M4943.39,6604.21L4927.07,6604.21C4922.05,6604.21 4917.99,6608.27 4917.99,6613.29C4917.99,6618.3 4922.05,6622.36 4927.07,6622.36L4943.39,6622.36C4948.4,6622.36 4952.47,6618.3 4952.47,6613.29C4952.47,6608.27 4948.4,6604.21 4943.39,6604.21Z" style="fill:white;"/>
                    <path d="M4943.39,6595.88C4953.01,6595.88 4960.8,6603.67 4960.8,6613.29C4960.8,6622.91 4953,6630.7 4943.39,6630.7L4927.07,6630.7C4917.45,6630.7 4909.66,6622.91 4909.66,6613.29C4909.66,6603.67 4917.45,6595.88 4927.07,6595.88L4943.39,6595.88ZM4943.39,6604.21L4927.07,6604.21C4922.05,6604.21 4917.99,6608.27 4917.99,6613.29C4917.99,6618.3 4922.05,6622.36 4927.07,6622.36L4943.39,6622.36C4948.4,6622.36 4952.47,6618.3 4952.47,6613.29C4952.47,6608.27 4948.4,6604.21 4943.39,6604.21Z"/>
                </g>
            </g>
        </g>
    </g>
</svg>
