<?xml version="1.0" encoding="UTF-8"?>
<svg width="24px" height="18px" viewBox="0 0 24 18" version="1.1" xmlns="http://www.w3.org/2000/svg" xmlns:xlink="http://www.w3.org/1999/xlink">
    <!-- Generator: sketchtool 61 (101010) - https://sketch.com -->
    <title>EA8F2832-EB5E-4C03-B1CE-7C7151CBE509</title>
    <desc>Created with sketchtool.</desc>
    <g id="Design" stroke="none" stroke-width="1" fill="none" fill-rule="evenodd">
        <g id="Contact-us-v1" transform="translate(-632.000000, -371.000000)" fill="#FFFFFF" fill-rule="nonzero">
            <g id="Group" transform="translate(607.000000, 341.000000)">
                <path d="M46.7499481,47.9999571 C47.3749464,47.9999571 47.9061956,47.7812074 48.3436943,47.3437086 C48.7811931,46.9062099 48.9999428,46.3749607 48.9999428,45.7499624 L48.9999428,45.7499624 L48.9999428,32.2499946 C48.9999428,31.6249964 48.7811931,31.0937472 48.3436943,30.6562484 C47.9061956,30.2187497 47.3749464,30 46.7499481,30 L46.7499481,30 L27.2499946,30 C26.6249964,30 26.0937472,30.2187497 25.6562484,30.6562484 C25.2187497,31.0937472 25,31.6249964 25,32.2499946 L25,32.2499946 L25,45.7499624 C25,46.3749607 25.2187497,46.9062099 25.6562484,47.3437086 C26.0937472,47.7812074 26.6249964,47.9999571 27.2499946,47.9999571 L27.2499946,47.9999571 L46.7499481,47.9999571 Z M36.9999714,41.2499732 C36.5937221,41.2499732 36.0937238,41.0468489 35.499975,40.6405996 C35.1249759,40.4218499 34.6249768,40.0468508 33.9999785,39.5156023 L33.9999785,39.5156023 L33.5781045,39.1406032 C30.4531118,36.703109 28.3437418,35.0468632 27.2499946,34.1718651 L27.2499946,34.1718651 L27.2499946,32.2499946 L46.7499481,32.2499946 L46.7499481,34.1718651 C45.656201,35.0781127 43.546831,36.7343592 40.4218382,39.1406032 L40.4218382,39.1406032 L39.9999642,39.5156023 C39.374966,40.0468508 38.8749669,40.4218499 38.4999678,40.6405996 C37.906219,41.0468489 37.4062207,41.2499732 36.9999714,41.2499732 Z M46.7499481,45.7499624 L27.2499946,45.7499624 L27.2499946,37.0312332 L32.6406068,41.343723 C33.4531046,41.9999714 34.0937283,42.4687203 34.5624772,42.7499696 C35.4374754,43.2499686 36.2499732,43.4999678 36.9999714,43.4999678 C37.7499696,43.4999678 38.5468427,43.2499686 39.3905907,42.7499696 C39.8905897,42.4687203 40.5312127,41.9999714 41.3124611,41.343723 L41.3124611,41.343723 L46.7499481,37.0312332 L46.7499481,45.7499624 Z" id="email-icon"></path>
            </g>
        </g>
    </g>
</svg>