<?xml version="1.0" encoding="UTF-8" standalone="no"?>
<!DOCTYPE svg PUBLIC "-//W3C//DTD SVG 1.1//EN" "http://www.w3.org/Graphics/SVG/1.1/DTD/svg11.dtd">
<svg width="100%" height="100%" viewBox="0 0 613 598" version="1.1" xmlns="http://www.w3.org/2000/svg" xmlns:xlink="http://www.w3.org/1999/xlink" xml:space="preserve" xmlns:serif="http://www.serif.com/" style="fill-rule:evenodd;clip-rule:evenodd;stroke-linejoin:round;stroke-miterlimit:2;">
    <g transform="matrix(1,0,0,1,-2795.14,-6446.16)">
        <g transform="matrix(1.08889,0,0,1.08889,2447.95,6309.31)">
            <path d="M509.458,562.773C509.458,564.979 506.922,566.743 503.723,566.743C500.084,567.074 497.548,565.309 497.548,562.773C497.548,560.567 500.084,558.803 503.282,558.803C506.591,558.472 509.458,560.236 509.458,562.773ZM475.16,557.81C474.388,560.016 476.594,562.552 479.902,563.214C482.77,564.317 486.078,563.214 486.74,561.008C487.402,558.803 485.306,556.266 481.998,555.274C479.131,554.502 475.932,555.605 475.16,557.81ZM523.905,555.935C520.707,556.707 518.501,558.803 518.832,561.339C519.163,563.545 522.03,564.979 525.339,564.207C528.537,563.435 530.743,561.339 530.412,559.134C530.081,557.038 527.103,555.605 523.905,555.935ZM596.471,133.333C443.509,133.333 326.5,249.461 326.5,402.422C326.5,524.726 403.477,629.384 513.428,666.218C527.544,668.754 532.507,660.042 532.507,652.874C532.507,646.036 532.176,608.32 532.176,585.16C532.176,585.16 454.979,601.703 438.767,552.296C438.767,552.296 426.195,520.204 408.109,511.933C408.109,511.933 382.854,494.618 409.873,494.949C409.873,494.949 437.333,497.155 452.442,523.402C476.594,565.971 517.068,553.73 532.838,546.451C535.375,528.806 542.543,516.565 550.483,509.286C488.835,502.448 426.636,493.516 426.636,387.424C426.636,357.096 435.018,341.877 452.663,322.468C449.795,315.299 440.421,285.744 455.53,247.586C478.579,240.418 531.625,277.362 531.625,277.362C553.681,271.186 577.392,267.988 600.882,267.988C624.372,267.988 648.083,271.186 670.14,277.362C670.14,277.362 723.185,240.307 746.234,247.586C761.343,285.854 751.969,315.299 749.102,322.468C766.747,341.988 777.555,357.207 777.555,387.424C777.555,493.846 712.598,502.338 650.95,509.286C661.096,517.998 669.698,534.541 669.698,560.457C669.698,597.622 669.368,643.61 669.368,652.653C669.368,659.821 674.441,668.534 688.446,665.997C798.729,629.384 873.5,524.726 873.5,402.422C873.5,249.461 749.433,133.333 596.471,133.333ZM433.694,513.697C432.26,514.8 432.591,517.337 434.466,519.432C436.231,521.196 438.767,521.968 440.201,520.535C441.634,519.432 441.304,516.895 439.429,514.8C437.664,513.036 435.128,512.264 433.694,513.697ZM421.784,504.764C421.012,506.198 422.115,507.963 424.32,509.065C426.085,510.168 428.29,509.837 429.062,508.293C429.834,506.86 428.731,505.095 426.526,503.992C424.32,503.331 422.556,503.662 421.784,504.764ZM457.515,544.025C455.751,545.459 456.412,548.767 458.949,550.862C461.485,553.399 464.684,553.73 466.117,551.965C467.551,550.532 466.889,547.223 464.684,545.128C462.257,542.591 458.949,542.26 457.515,544.025ZM444.943,527.813C443.178,528.916 443.178,531.784 444.943,534.32C446.707,536.857 449.685,537.959 451.119,536.857C452.883,535.423 452.883,532.556 451.119,530.019C449.575,527.483 446.707,526.38 444.943,527.813Z" style="fill:white;fill-rule:nonzero;"/>
            <path d="M536.057,553.394C537.078,554.773 537.715,556.318 537.971,557.94C537.974,557.959 537.977,557.979 537.98,557.998C538.784,563.358 534.906,569.77 527.135,571.646C527.116,571.651 527.097,571.655 527.078,571.659C522.117,572.817 517.855,571.431 514.994,568.95C512.789,571.991 508.974,574.287 504.091,574.392C497.642,574.87 493.151,571.961 491.12,567.942C490.311,568.702 489.369,569.362 488.306,569.895C485.396,571.356 481.468,571.795 477.8,570.586C471.762,569.135 468.19,564.512 467.531,559.943C463.495,561.418 458.222,560.789 453.8,556.53C450.004,553.241 448.671,548.802 449.146,544.921C449.078,544.917 449.009,544.913 448.94,544.908C447.094,544.776 444.936,544.069 442.913,542.774C444.845,546.826 445.893,549.505 445.893,549.505C445.945,549.638 445.994,549.774 446.039,549.91C451.581,566.801 465.7,574.383 480.363,577.749C504.503,583.291 530.573,577.677 530.573,577.677C532.833,577.193 535.19,577.756 536.988,579.209C538.785,580.662 539.829,582.849 539.829,585.16C539.829,608.32 540.16,646.036 540.16,652.874C540.16,659.614 537.157,667.116 530.139,671.268C525.921,673.763 520.052,675.184 512.075,673.75C511.709,673.685 511.349,673.592 510.997,673.474C398.005,635.622 318.847,528.107 318.847,402.422C318.847,245.118 439.166,125.68 596.471,125.68C753.719,125.68 881.153,245.175 881.153,402.422C881.153,528.127 804.207,635.628 690.858,673.26C690.515,673.374 690.165,673.463 689.81,673.528C681.884,674.963 676.02,673.549 671.789,671.05C664.76,666.9 661.715,659.391 661.715,652.653C661.715,643.61 662.045,597.622 662.045,560.457C662.045,537.568 654.925,522.787 645.965,515.092C643.655,513.109 642.74,509.944 643.636,507.034C644.532,504.124 647.068,502.022 650.093,501.681C685.256,497.718 721.768,493.852 745.178,469.041C760.578,452.719 769.902,427.356 769.902,387.424C769.902,359.547 759.703,345.608 743.425,327.6C741.465,325.432 740.911,322.338 741.996,319.625C744.549,313.243 752.467,287.773 740.581,254.304C738.678,254.194 736.599,254.376 734.402,254.723C727.671,255.787 720.073,258.559 712.628,261.904C693.013,270.715 674.522,283.636 674.522,283.636C672.646,284.947 670.281,285.349 668.076,284.732C646.677,278.74 623.672,275.641 600.882,275.641C578.092,275.641 555.088,278.74 533.688,284.732C531.488,285.348 529.127,284.948 527.251,283.642C527.251,283.642 502.21,266.163 479.555,258.063C472.834,255.66 466.406,253.902 461.188,254.28C449.293,287.671 457.215,313.243 459.768,319.625C460.856,322.345 460.296,325.448 458.326,327.616C442.072,345.495 434.289,359.488 434.289,387.424C434.289,427.278 443.211,452.657 458.132,469.026C480.737,493.826 516.241,497.788 551.327,501.68C554.311,502.011 556.826,504.056 557.758,506.91C558.69,509.763 557.868,512.899 555.655,514.927C548.707,521.296 542.633,532.101 540.413,547.54C540.045,550.103 538.405,552.306 536.057,553.394ZM445.024,534.434C446.797,536.889 449.707,537.943 451.119,536.857C452.883,535.423 452.883,532.556 451.119,530.019C449.575,527.483 446.707,526.38 444.943,527.813C443.255,528.868 443.182,531.538 444.723,533.989C444.722,534.066 444.73,534.144 444.754,534.22C444.835,534.304 444.927,534.374 445.024,534.434ZM435.971,520.588C437.479,521.449 439.141,521.595 440.201,520.535C441.634,519.432 441.304,516.895 439.429,514.8C437.664,513.036 435.128,512.264 433.694,513.697C432.58,514.555 432.531,516.278 433.446,517.988C433.31,518.582 433.202,519.319 433.725,519.903L434.017,520.212C434.549,520.743 435.359,520.659 435.971,520.588ZM427.113,509.664C427.96,509.516 428.684,509.051 429.062,508.293C429.834,506.86 428.731,505.095 426.526,503.992C424.32,503.331 422.556,503.662 421.784,504.764C421.483,505.322 421.467,505.93 421.689,506.53C421.553,507.432 421.654,508.357 422.014,509.274C422.206,509.762 422.404,510.488 423.103,510.838L424.327,511.323C425.023,511.532 425.572,511.107 425.989,510.912C426.179,510.822 426.359,510.723 426.531,510.615C426.709,510.285 426.904,509.967 427.113,509.664ZM436.041,530.054C436.066,529.571 436.12,529.097 436.2,528.633C435.793,528.561 435.386,528.468 434.98,528.354C435.342,528.923 435.695,529.49 436.041,530.054ZM413.917,506.324C413.859,505.36 413.943,504.406 414.156,503.493C411.744,502.891 410.048,502.666 409.466,502.6C409.386,502.6 409.306,502.6 409.225,502.601C410.808,504.09 412.217,505.415 412.216,505.414C412.787,505.699 413.354,506.002 413.917,506.324ZM457.515,544.025C455.751,545.459 456.412,548.767 458.949,550.862C461.485,553.399 464.684,553.73 466.117,551.965C467.551,550.532 466.889,547.223 464.684,545.128C462.257,542.591 458.949,542.26 457.515,544.025ZM509.458,562.773C509.458,560.236 506.591,558.472 503.282,558.803C500.084,558.803 497.548,560.567 497.548,562.773C497.548,565.309 500.084,567.074 503.723,566.743C506.922,566.743 509.458,564.979 509.458,562.773ZM475.16,557.81C474.388,560.016 476.594,562.552 479.902,563.214C482.77,564.317 486.078,563.214 486.74,561.008C487.402,558.803 485.306,556.266 481.998,555.274C479.131,554.502 475.932,555.605 475.16,557.81ZM523.905,555.935C520.707,556.707 518.501,558.803 518.832,561.339C519.163,563.545 522.03,564.979 525.339,564.207C528.537,563.435 530.743,561.339 530.412,559.134C530.081,557.038 527.103,555.605 523.905,555.935ZM596.471,133.333C443.509,133.333 326.5,249.461 326.5,402.422C326.5,524.726 403.477,629.384 513.428,666.218C527.544,668.754 532.507,660.042 532.507,652.874C532.507,646.036 532.176,608.32 532.176,585.16C532.176,585.16 454.979,601.703 438.767,552.296C438.767,552.296 426.195,520.204 408.109,511.933C408.109,511.933 382.854,494.618 409.873,494.949C409.873,494.949 437.333,497.155 452.442,523.402C476.594,565.971 517.068,553.73 532.838,546.451C535.375,528.806 542.543,516.565 550.483,509.286C488.835,502.448 426.636,493.516 426.636,387.424C426.636,357.096 435.018,341.877 452.663,322.468C449.795,315.299 440.421,285.744 455.53,247.586C478.579,240.418 531.625,277.362 531.625,277.362C553.681,271.186 577.392,267.988 600.882,267.988C624.372,267.988 648.083,271.186 670.14,277.362C670.14,277.362 723.185,240.307 746.234,247.586C761.343,285.854 751.969,315.299 749.102,322.468C766.747,341.988 777.555,357.207 777.555,387.424C777.555,493.846 712.598,502.338 650.95,509.286C661.096,517.998 669.698,534.541 669.698,560.457C669.698,597.622 669.368,643.61 669.368,652.653C669.368,659.821 674.441,668.534 688.446,665.997C798.729,629.384 873.5,524.726 873.5,402.422C873.5,249.461 749.433,133.333 596.471,133.333Z"/>
        </g>
    </g>
</svg>
