<?xml version="1.0" encoding="UTF-8" standalone="no"?>
<!DOCTYPE svg PUBLIC "-//W3C//DTD SVG 1.1//EN" "http://www.w3.org/Graphics/SVG/1.1/DTD/svg11.dtd">
<svg width="100%" height="100%" viewBox="0 0 101 101" version="1.1" xmlns="http://www.w3.org/2000/svg" xmlns:xlink="http://www.w3.org/1999/xlink" xml:space="preserve" xmlns:serif="http://www.serif.com/" style="fill-rule:evenodd;clip-rule:evenodd;stroke-linecap:round;stroke-linejoin:round;stroke-miterlimit:1.5;">
    <g transform="matrix(1,0,0,1,-973.814,-427.457)">
        <g transform="matrix(0.196468,0,0,-0.196468,408.423,924.028)">
            <g transform="matrix(4.08398,0,0,4.08398,534.184,274.582)">
                <circle cx="636.713" cy="488.781" r="55.074" style="fill:rgb(245,114,242);"/>
                <path d="M636.713,425.918C602.017,425.918 573.849,454.086 573.849,488.781C573.849,523.476 602.017,551.644 636.713,551.644C671.408,551.644 699.576,523.476 699.576,488.781C699.576,454.086 671.408,425.918 636.713,425.918ZM636.713,433.707C667.109,433.707 691.787,458.385 691.787,488.781C691.787,519.177 667.109,543.855 636.713,543.855C606.317,543.855 581.639,519.177 581.639,488.781C581.639,458.385 606.317,433.707 636.713,433.707Z" style="fill:rgb(18,12,120);"/>
            </g>
            <g transform="matrix(2.93228,1.34219e-16,1.78539e-16,5.35841,478.171,-203.83)">
                <path d="M861.704,477.897L905.894,433.707L950.084,477.897" style="fill:none;stroke:rgb(18,12,120);stroke-width:22.1px;"/>
            </g>
        </g>
    </g>
</svg>
