<?xml version="1.0" encoding="UTF-8" standalone="no"?>
<!DOCTYPE svg PUBLIC "-//W3C//DTD SVG 1.1//EN" "http://www.w3.org/Graphics/SVG/1.1/DTD/svg11.dtd">
<svg width="100%" height="100%" viewBox="0 0 1275 1275" version="1.1" xmlns="http://www.w3.org/2000/svg" xmlns:xlink="http://www.w3.org/1999/xlink" xml:space="preserve" xmlns:serif="http://www.serif.com/" style="fill-rule:evenodd;clip-rule:evenodd;stroke-linejoin:round;stroke-miterlimit:2;">
    <g transform="matrix(0.88421,0,0,0.88421,73.8163,73.8163)">
        <g transform="matrix(1.06265,0,0,1.06265,-39.938,-39.938)">
            <path d="M1275,150.135C1275,67.273 1207.73,0 1124.87,0L150.135,0C67.273,0 0,67.273 0,150.135L0,1124.87C0,1207.73 67.273,1275 150.135,1275L1124.87,1275C1207.73,1275 1275,1207.73 1275,1124.87L1275,150.135Z" style="fill:rgb(245,114,242);"/>
            <path d="M1294.95,150.135L1294.95,1124.87C1294.95,1218.74 1218.74,1294.95 1124.87,1294.95L150.135,1294.95C56.26,1294.95 -19.955,1218.74 -19.955,1124.87L-19.955,150.135C-19.955,56.26 56.26,-19.955 150.135,-19.955L1124.87,-19.955C1218.74,-19.955 1294.95,56.26 1294.95,150.135ZM1275,150.135C1275,67.273 1207.73,0 1124.87,0L150.135,0C67.273,0 0,67.273 0,150.135L0,1124.87C0,1207.73 67.273,1275 150.135,1275L1124.87,1275C1207.73,1275 1275,1207.73 1275,1124.87L1275,150.135Z"/>
        </g>
        <g transform="matrix(1.13095,0,0,1.13095,-83.4828,-83.4828)">
            <path d="M882.053,756.198L392.947,756.198C362.426,756.198 337.684,731.456 337.684,700.935L337.684,409.965C337.684,232.645 473.231,90.719 637.5,90.719C647.342,90.719 657.127,91.233 666.741,92.23L666.786,92.234C817.574,107.908 937.316,243.303 937.316,409.965L937.316,700.935C937.316,731.456 912.574,756.198 882.053,756.198ZM667.777,203.883C657.933,202.148 647.822,201.245 637.5,201.245C531.814,201.245 448.21,295.882 448.21,409.965L448.21,645.672L826.79,645.672L826.79,409.965C826.79,307.024 758.719,219.917 667.777,203.883Z" style="fill:rgb(18,12,120);"/>
        </g>
        <g transform="matrix(1.03312,0,0,1.03312,40.3124,2.07976)">
            <path d="M942.424,611.568C699.979,594.406 457.052,594.552 213.656,611.568L213.656,1153.77C457.065,1192.05 699.981,1191.53 942.424,1153.77L942.424,611.568Z" style="fill:rgb(18,12,120);"/>
        </g>
        <g transform="matrix(1.03312,0,0,1.03312,40.3124,2.07976)">
            <path d="M960.573,611.568L960.573,1153.77C960.573,1162.71 954.056,1170.33 945.217,1171.7C700.907,1209.75 456.121,1210.27 210.837,1171.7C202.011,1170.31 195.508,1162.7 195.508,1153.77L195.508,611.568C195.508,602.036 202.882,594.129 212.391,593.464C456.637,576.388 700.413,576.243 943.706,593.465C953.208,594.138 960.573,602.042 960.573,611.568ZM942.424,611.568C699.979,594.406 457.052,594.552 213.656,611.568L213.656,1153.77C457.065,1192.05 699.981,1191.53 942.424,1153.77L942.424,611.568Z" style="fill:rgb(245,114,242);"/>
        </g>
        <g transform="matrix(1.45015,0,0,1.45015,-225.108,-413.96)">
            <path d="M594.838,830.19C629.428,771.742 698.608,771.742 733.199,800.966C767.79,830.19 767.79,888.638 733.199,947.086C708.985,990.922 646.724,1034.76 594.838,1063.98C542.953,1034.76 480.691,990.922 456.478,947.086C421.888,888.638 421.888,830.19 456.478,800.966C491.068,771.742 560.248,771.742 594.838,830.19Z" style="fill:rgb(245,114,242);"/>
        </g>
    </g>
</svg>
