<?xml version="1.0" encoding="UTF-8" standalone="no"?>
<!DOCTYPE svg PUBLIC "-//W3C//DTD SVG 1.1//EN" "http://www.w3.org/Graphics/SVG/1.1/DTD/svg11.dtd">
<svg width="100%" height="100%" viewBox="0 0 849 110" version="1.1" xmlns="http://www.w3.org/2000/svg" xmlns:xlink="http://www.w3.org/1999/xlink" xml:space="preserve" xmlns:serif="http://www.serif.com/" style="fill-rule:evenodd;clip-rule:evenodd;stroke-linejoin:round;stroke-miterlimit:2;">
    <g transform="matrix(1,0,0,1,-358.542,-102.427)">
        <g transform="matrix(1,0,0,1,44.3601,-7.96823)">
            <path d="M325.315,203.397C325.315,202.963 325.206,202.313 324.989,201.445C324.917,201.301 324.809,200.831 324.664,200.036C324.52,199.241 324.447,198.771 324.447,198.626C323.724,194.723 323.255,192.121 323.038,190.82C321.231,180.267 320.363,170.907 320.436,162.739C320.58,150.09 322.929,140.079 327.483,132.706C333.482,123.021 342.843,118.178 355.564,118.178C362.865,118.105 369.442,120.202 375.297,124.466C380.501,128.442 384.332,133.61 386.79,139.97C389.175,146.476 389.825,152.909 388.741,159.269C387.657,166.136 384.694,172.099 379.851,177.159C375.514,181.496 370.273,184.17 364.13,185.182C360.226,185.833 356.143,185.76 351.878,184.965C351.95,185.544 352.059,186.483 352.203,187.784C352.348,188.652 352.492,190.025 352.637,191.904C353.071,195.374 353.287,198.193 353.287,200.361C353.287,203.903 351.986,206.903 349.384,209.36C346.927,211.456 344.108,212.721 340.927,213.155C337.53,213.589 334.494,213.119 331.82,211.745C328.784,210.155 326.76,207.698 325.748,204.373C325.604,204.156 325.459,203.831 325.315,203.397ZM355.564,150.813C354.191,148.5 352.89,147.09 351.661,146.584C351.011,146.295 350.577,146.223 350.36,146.367C349.926,146.512 349.601,146.982 349.384,147.777C349.167,148.861 349.204,150.054 349.493,151.355C350.577,155.041 351.408,157.426 351.986,158.51C352.565,159.739 353.143,160.498 353.721,160.787C354.083,161.076 354.95,160.896 356.323,160.245C358.058,159.522 360.588,157.896 363.913,155.366C365.503,154.137 366.009,152.909 365.431,151.68C365.358,151.391 365.069,151.21 364.563,151.138C363.407,150.921 361.853,151.21 359.901,152.005C359.106,152.439 358.293,152.547 357.462,152.33C356.63,152.114 355.998,151.608 355.564,150.813ZM401.643,150.054C401.643,146.44 402.728,143.368 404.896,140.838C406.92,138.525 409.45,137.188 412.486,136.826C415.594,136.609 418.304,137.585 420.617,139.754C421.412,140.404 422.28,141.524 423.219,143.115C427.05,140.079 431.929,139.067 437.856,140.079C441.543,140.729 444.849,142.121 447.777,144.253C450.704,146.385 452.746,148.969 453.903,152.005C455.276,155.692 455.421,159.197 454.336,162.522C453.324,165.63 451.373,167.943 448.482,169.461C445.663,170.979 442.591,171.395 439.266,170.708C435.941,170.021 433.013,168.341 430.484,165.666C430.05,165.233 429.616,165.124 429.182,165.341C428.387,165.63 427.809,166.317 427.448,167.401C427.014,168.485 426.689,172.027 426.472,178.026C426.4,182.508 426.327,185.146 426.255,185.941C425.821,192.663 425.062,197.723 423.978,201.12C423.255,203.578 422.171,205.565 420.726,207.083C418.919,208.89 416.75,209.758 414.22,209.685C408.221,209.324 404.354,206.758 402.619,201.988C402.041,200.253 401.643,197.976 401.427,195.157C401.354,193.422 401.354,190.784 401.427,187.242L401.427,182.58C401.427,174.918 401.463,168.485 401.535,163.281L401.535,156.45C401.535,155.655 401.553,154.698 401.589,153.577C401.625,152.457 401.643,151.716 401.643,151.355L401.643,150.054ZM467.347,164.04C467.636,161.149 469.009,158.763 471.467,156.884C473.78,155.149 476.454,154.282 479.49,154.282C482.67,154.282 485.381,155.149 487.622,156.884C490.296,159.053 491.778,161.835 492.067,165.233C492.501,169.28 492.718,180.086 492.718,197.651C492.718,201.409 491.344,204.373 488.597,206.541C486.357,208.348 483.538,209.324 480.141,209.469C476.888,209.469 474.069,208.565 471.684,206.758C468.792,204.662 467.238,201.843 467.022,198.301C466.66,193.025 466.498,186.971 466.534,180.141C466.57,173.31 466.769,168.196 467.13,164.799C467.13,164.582 467.202,164.329 467.347,164.04ZM479.598,120.238C482.128,118.358 484.333,117.238 486.212,116.877C489.031,116.298 491.38,116.804 493.26,118.395C494.85,119.768 495.826,121.557 496.187,123.761C496.548,125.966 496.223,127.972 495.211,129.779C492.754,134.332 490.441,138.019 488.272,140.838C485.815,143.874 483.357,145.536 480.9,145.825C478.297,146.259 475.695,145.283 473.093,142.898C471.142,141.091 468.973,138.38 466.588,134.766C464.781,132.236 463.715,129.562 463.389,126.743C463.064,123.924 463.588,121.575 464.962,119.696C466.624,117.238 469.118,116.298 472.443,116.877C474.467,117.166 476.852,118.286 479.598,120.238ZM509.631,166.317C507.897,161.546 507.644,157.137 508.872,153.089C510.101,149.331 512.306,146.548 515.486,144.741C518.666,142.789 521.991,142.5 525.461,143.874C529.003,145.319 531.569,148.21 533.159,152.547C533.376,153.198 533.719,154.156 534.189,155.42C534.659,156.685 534.966,157.571 535.11,158.077C535.255,158.294 535.544,159.125 535.978,160.57C538.652,168.16 540.568,173.328 541.724,176.075L543.134,178.894C543.206,178.749 543.26,178.514 543.296,178.189C543.332,177.864 543.35,177.629 543.35,177.484C543.784,175.099 544.254,170.798 544.76,164.582C544.76,164.438 544.796,164.293 544.868,164.148L544.868,163.606C545.374,156.956 545.88,152.439 546.386,150.054C547.037,146.367 548.844,143.368 551.807,141.055C554.482,139.103 557.409,138.2 560.589,138.344C564.131,138.489 566.914,139.681 568.938,141.922C571.251,144.596 572.082,147.921 571.432,151.897C570.998,155.077 570.636,157.715 570.347,159.812C570.347,160.173 570.311,160.516 570.239,160.842C570.167,161.167 570.094,161.637 570.022,162.251C569.95,162.865 569.877,163.534 569.805,164.257C568.938,170.979 568.07,176.689 567.203,181.387C566.047,187.314 564.42,192.483 562.324,196.892C558.638,204.626 553.397,209.107 546.603,210.336C539.881,211.565 533.99,209.179 528.93,203.18C524.449,197.687 520.69,191.868 517.654,185.724C515.269,181.171 512.595,174.774 509.631,166.534L509.631,166.317ZM602.44,210.011C600.85,209.071 599.477,207.625 598.32,205.674C596.874,203.433 595.573,200.18 594.417,195.916C592.754,189.555 591.598,180.845 590.947,169.786C590.731,166.534 590.55,161.366 590.405,154.282C590.405,153.993 590.333,149.62 590.188,141.163C590.188,136.898 590.152,134.296 590.08,133.357C590.008,130.393 591.273,127.827 593.875,125.659C595.465,124.285 597.561,123.201 600.163,122.406C600.38,122.262 600.778,122.117 601.356,121.972L602.115,121.972C602.187,121.9 602.332,121.864 602.548,121.864C602.765,121.792 603.054,121.756 603.416,121.756C609.271,121.177 613.391,120.816 615.776,120.671C623.582,120.165 630.232,120.021 635.725,120.238C643.387,120.382 649.423,121.069 653.832,122.298C656.868,123.165 659.072,124.141 660.446,125.225C662.686,126.888 663.807,128.948 663.807,131.405C663.879,134.08 662.578,136.284 659.903,138.019C658.169,139.175 655.567,140.151 652.097,140.946C646.893,142.03 639.882,142.681 631.063,142.898C626.148,143.042 621.848,143.115 618.161,143.115L615.125,143.115C615.125,144.849 615.198,146.223 615.342,147.235C615.342,147.741 615.415,148.789 615.559,150.379C615.559,150.451 615.577,150.578 615.613,150.758C615.649,150.939 615.667,151.066 615.667,151.138C615.667,151.572 615.704,151.824 615.776,151.897C615.776,152.62 615.812,153.126 615.884,153.415C615.957,154.065 615.993,154.896 615.993,155.908C624.811,155.836 632.509,156.197 639.087,156.993C643.713,157.499 647.507,158.366 650.471,159.595C652.278,160.39 653.687,161.293 654.699,162.305C656.073,163.679 656.759,165.341 656.759,167.293C656.615,169.027 655.964,170.473 654.808,171.629C653.94,172.497 652.748,173.256 651.23,173.906C648.844,174.991 645.664,175.75 641.689,176.183C634.894,176.978 627.088,176.978 618.27,176.183C618.053,180.954 618.233,185.797 618.812,190.712C618.884,190.712 618.92,190.784 618.92,190.929C620.004,196.856 619.535,201.879 617.511,205.999C616.21,208.674 614.33,210.462 611.873,211.366C609.415,212.269 606.669,212.107 603.633,210.878C602.982,210.589 602.585,210.3 602.44,210.011ZM690.804,140.187L691.02,140.079C691.165,140.007 691.237,139.934 691.237,139.862C700.851,135.525 710.103,135.344 718.993,139.32C726.872,142.789 732.69,148.789 736.449,157.318C740.208,165.775 740.714,174.268 737.967,182.797C734.931,192.266 728.39,199.494 718.343,204.481C714.223,206.505 709.163,207.192 703.164,206.541C697.67,205.963 693.08,204.553 689.394,202.313C683.178,198.554 678.552,193.531 675.516,187.242C672.769,181.315 671.649,175.171 672.155,168.811C672.661,162.45 674.577,156.685 677.901,151.517C681.226,146.349 685.527,142.573 690.804,140.187ZM704.139,168.485C702.766,166.1 701.501,164.654 700.345,164.148C699.839,163.787 699.405,163.679 699.044,163.823C698.538,164.112 698.212,164.582 698.068,165.233C697.706,166.317 697.743,167.509 698.176,168.811C699.044,172.208 699.803,174.629 700.453,176.075C701.031,177.376 701.573,178.135 702.079,178.352C702.513,178.568 703.417,178.424 704.79,177.918C706.452,177.195 709.018,175.569 712.488,173.039C714.006,171.882 714.548,170.69 714.114,169.461C713.97,169.172 713.644,168.991 713.138,168.919C711.837,168.63 710.319,168.883 708.585,169.678C707.79,170.039 706.958,170.112 706.091,169.895C705.224,169.678 704.573,169.208 704.139,168.485ZM752.062,150.054C752.062,146.44 753.146,143.368 755.314,140.838C757.338,138.525 759.868,137.188 762.904,136.826C766.012,136.609 768.723,137.585 771.036,139.754C771.831,140.404 772.698,141.524 773.638,143.115C777.469,140.079 782.348,139.067 788.275,140.079C791.961,140.729 795.268,142.121 798.195,144.253C801.123,146.385 803.164,148.969 804.321,152.005C805.694,155.692 805.839,159.197 804.755,162.522C803.743,165.63 801.791,167.943 798.9,169.461C796.081,170.979 793.009,171.395 789.684,170.708C786.359,170.021 783.432,168.341 780.902,165.666C780.468,165.233 780.035,165.124 779.601,165.341C778.806,165.63 778.227,166.317 777.866,167.401C777.432,168.485 777.107,172.027 776.89,178.026C776.818,182.508 776.746,185.146 776.673,185.941C776.24,192.663 775.481,197.723 774.397,201.12C773.674,203.578 772.59,205.565 771.144,207.083C769.337,208.89 767.168,209.758 764.639,209.685C758.639,209.324 754.772,206.758 753.038,201.988C752.459,200.253 752.062,197.976 751.845,195.157C751.773,193.422 751.773,190.784 751.845,187.242L751.845,182.58C751.845,174.918 751.881,168.485 751.953,163.281L751.953,156.45C751.953,155.655 751.971,154.698 752.008,153.577C752.044,152.457 752.062,151.716 752.062,151.355L752.062,150.054ZM873.928,169.786C873.855,170.437 873.729,171.648 873.548,173.418C873.367,175.189 873.205,176.978 873.06,178.785C872.626,183.556 872.193,187.423 871.759,190.386C871.036,194.868 870.205,198.663 869.265,201.771C868.543,204.373 867.35,206.505 865.688,208.168C863.953,209.685 862.001,210.444 859.833,210.444C858.098,210.372 856.454,209.74 854.9,208.547C853.346,207.354 852.171,205.855 851.376,204.048C850.436,201.735 849.786,198.843 849.424,195.374C849.207,192.844 849.207,189.88 849.424,186.483C849.424,186.411 849.497,185.291 849.641,183.122C849.93,178.785 850.003,175.388 849.858,172.931C849.641,169.895 848.991,167.618 847.906,166.1C847.617,165.666 847.075,165.558 846.28,165.775C844.979,166.136 844.003,166.895 843.353,168.052C842.485,169.353 841.835,171.593 841.401,174.774C841.112,177.231 840.859,180.628 840.642,184.965C840.642,185.11 840.624,185.291 840.588,185.507C840.552,185.724 840.534,185.977 840.534,186.266C840.461,189.519 840.317,192.085 840.1,193.964C839.883,196.639 839.558,198.952 839.124,200.903C838.618,203.144 837.787,205.059 836.631,206.65C835.113,208.529 833.125,209.541 830.667,209.685C824.668,209.758 820.729,207.3 818.849,202.313C818.271,200.65 817.874,198.301 817.657,195.265C817.585,193.531 817.585,190.892 817.657,187.351L817.657,182.58C817.657,174.918 817.693,168.485 817.765,163.281L817.765,156.45C817.765,155.655 817.783,154.698 817.819,153.577C817.856,152.457 817.874,151.716 817.874,151.355L817.874,150.054C817.874,146.44 818.958,143.368 821.126,140.838C823.15,138.525 825.68,137.188 828.716,136.826C831.824,136.609 834.534,137.585 836.847,139.754C837.715,140.476 838.546,141.597 839.341,143.115C843.244,140.079 848.123,138.958 853.978,139.754C859.471,140.549 864.061,142.789 867.748,146.476C871.723,141.922 876.963,139.754 883.469,139.97C887.155,140.115 890.588,141.073 893.769,142.844C896.949,144.614 899.298,146.909 900.816,149.728C903.924,155.222 905.478,164.98 905.478,179.002C905.478,192.591 904.069,201.915 901.25,206.975C898.648,211.601 895.214,213.697 890.95,213.263C887.191,212.902 884.444,210.77 882.71,206.866C881.698,204.264 881.12,201.156 880.975,197.542C880.903,195.374 881.047,192.266 881.409,188.218L881.409,187.567C881.842,182.219 881.878,178.46 881.517,176.292C881.083,172.75 879.818,170.003 877.722,168.052C876.999,167.329 876.132,167.04 875.12,167.184C874.47,167.256 874.108,167.762 874.036,168.702L874.036,169.353C874.036,169.569 874,169.714 873.928,169.786ZM929.548,185.724C931.21,184.568 932.945,183.737 934.752,183.231C937.21,182.797 939.306,183.267 941.04,184.64C942.414,185.797 943.263,187.351 943.588,189.302C943.914,191.254 943.643,193.025 942.775,194.615C940.679,198.446 938.764,201.445 937.029,203.614C934.86,206.216 932.764,207.662 930.74,207.951C928.355,208.384 926.078,207.553 923.91,205.457C922.464,204.084 920.657,201.843 918.489,198.735C916.971,196.494 916.067,194.199 915.778,191.85C915.489,189.501 915.923,187.459 917.079,185.724C918.669,183.628 920.91,182.797 923.801,183.231C925.464,183.52 927.379,184.351 929.548,185.724ZM956.111,150.054C956.111,146.44 957.195,143.368 959.364,140.838C961.388,138.525 963.917,137.188 966.953,136.826C970.061,136.609 972.772,137.585 975.085,139.754C976.169,140.765 977.036,141.886 977.687,143.115C979.133,142.175 980.614,141.488 982.132,141.055C985.313,140.115 988.71,140.151 992.324,141.163C995.721,142.03 998.883,143.548 1001.81,145.717C1004.74,147.885 1007,150.343 1008.59,153.089C1010.83,157.209 1011.88,165.486 1011.73,177.918C1011.59,190.784 1010.18,199.53 1007.5,204.156C1004.9,208.854 1001.47,210.914 997.203,210.336C993.516,209.758 990.842,207.553 989.18,203.722C988.168,201.409 987.662,198.518 987.662,195.049C987.662,193.025 987.842,190.061 988.204,186.158C988.276,185.435 988.385,184.098 988.529,182.146C988.746,178.605 988.71,175.75 988.421,173.581C987.987,170.762 987.083,168.413 985.71,166.534C985.349,166.028 984.879,165.883 984.301,166.1C983.216,166.317 982.277,166.967 981.482,168.052C980.759,169.208 980.108,171.449 979.53,174.774C979.096,177.376 978.699,180.99 978.337,185.616L978.337,186.809C978.193,188.182 977.94,190.712 977.579,194.398C977.217,197.434 976.856,199.711 976.494,201.229C975.988,203.614 975.266,205.457 974.326,206.758C972.736,208.926 970.82,209.902 968.58,209.685C962.652,209.179 958.822,206.541 957.087,201.771C956.509,200.18 956.111,197.904 955.894,194.94C955.822,193.35 955.822,190.784 955.894,187.242L955.894,182.58C955.894,174.918 955.93,168.485 956.003,163.281L956.003,156.45C956.003,155.655 956.021,154.698 956.057,153.577C956.093,152.457 956.111,151.716 956.111,151.355L956.111,150.054ZM1052.39,177.267C1053.69,181.315 1056.18,184.785 1059.87,187.676C1061.89,189.049 1064.32,189.627 1067.13,189.411C1068.8,189.338 1071.22,188.832 1074.4,187.893C1074.98,187.893 1075.38,187.784 1075.59,187.567C1076.17,187.423 1076.57,187.314 1076.78,187.242C1078.01,186.953 1078.81,186.772 1079.17,186.7C1081.19,186.266 1082.86,186.086 1084.16,186.158C1088.28,186.519 1090.95,188.977 1092.18,193.531C1092.9,196.639 1092.43,199.494 1090.77,202.096C1089.47,204.12 1087.59,205.927 1085.13,207.517C1083.4,208.529 1081.3,209.505 1078.84,210.444C1076.82,211.023 1075.27,211.42 1074.18,211.637C1066.45,212.721 1058.91,211.908 1051.58,209.198C1044.24,206.487 1038.22,202.349 1033.52,196.783C1028.75,191.218 1026.15,185.11 1025.72,178.46C1025.28,171.232 1027.63,164.51 1032.77,158.294C1039.49,149.981 1047.94,145.355 1058.14,144.416C1066.88,143.765 1074.76,145.681 1081.77,150.162C1085.24,152.33 1087.86,154.878 1089.63,157.806C1091.4,160.733 1092.07,163.679 1091.64,166.642C1091.2,169.895 1089.36,172.822 1086.11,175.424C1082.93,177.81 1078.56,179.653 1072.99,180.954C1065.4,182.616 1058.53,181.387 1052.39,177.267ZM1133.16,143.44C1137.5,142.573 1141.51,142.356 1145.2,142.789C1148.09,143.078 1150.48,143.91 1152.35,145.283C1154.74,147.018 1156.11,149.367 1156.47,152.33C1156.69,154.933 1156.04,157.209 1154.52,159.161C1153.15,160.823 1151.27,162.161 1148.88,163.173C1145.78,164.618 1141.4,165.558 1135.77,165.992C1136.27,170.473 1136.7,175.605 1137.07,181.387C1137.43,187.531 1137.61,192.049 1137.61,194.94C1137.46,200.361 1136.31,204.734 1134.14,208.059C1131.83,211.529 1128.86,213.191 1125.25,213.047C1121.85,212.902 1118.92,211.203 1116.47,207.951C1114.08,204.77 1112.67,200.686 1112.24,195.699C1112.09,193.603 1111.95,192.013 1111.8,190.929C1111.8,190.639 1111.73,189.772 1111.59,188.326C1111.44,186.953 1111.37,186.086 1111.37,185.724C1111.23,184.568 1111.15,183.773 1111.15,183.339C1110.58,177.412 1110.21,172.641 1110.07,169.027C1105.52,169.316 1101.68,168.919 1098.58,167.835C1093.81,166.1 1091.2,162.92 1090.77,158.294C1090.48,155.619 1091.17,153.342 1092.83,151.463C1093.99,150.017 1095.83,148.825 1098.36,147.885C1101.32,146.946 1104.72,146.44 1108.55,146.367C1108.26,141.814 1108.19,138.127 1108.34,135.308L1108.34,133.574C1108.41,133.14 1108.44,132.598 1108.44,131.947C1108.59,128.333 1109.78,125.334 1112.02,122.948C1114.12,120.708 1116.68,119.479 1119.72,119.262C1122.83,119.045 1125.5,119.84 1127.74,121.647C1130.27,123.599 1131.75,126.309 1132.19,129.779C1132.77,134.838 1133.09,138.489 1133.16,140.729L1133.16,143.44Z" style="fill:rgb(18,12,120);fill-rule:nonzero;"/>
            <path d="M503.5,167.72C501.492,161.807 501.36,156.321 502.892,151.274C502.905,151.232 502.918,151.189 502.932,151.147C504.674,145.819 507.846,141.911 512.304,139.361C517.234,136.368 522.386,135.935 527.761,138.062C527.782,138.07 527.802,138.079 527.823,138.087C532.906,140.162 536.744,144.171 539.027,150.396C539.048,150.454 539.068,150.512 539.088,150.571C539.231,151 539.433,151.572 539.695,152.287C539.882,150.88 540.067,149.741 540.248,148.874C541.19,143.658 543.759,139.408 547.962,136.128C548.015,136.086 548.069,136.046 548.123,136.006C552.003,133.174 556.259,131.891 560.844,132.099C566.273,132.321 570.474,134.298 573.576,137.733C573.606,137.766 573.636,137.8 573.665,137.834C577.153,141.866 578.571,146.835 577.614,152.818C577.207,155.797 576.865,158.299 576.586,160.32C576.557,160.972 576.473,161.598 576.34,162.197C576.3,162.378 576.269,162.64 576.229,162.981C576.161,163.562 576.093,164.195 576.024,164.879C576.018,164.938 576.011,164.997 576.004,165.057C575.119,171.91 574.234,177.732 573.349,182.522C573.345,182.543 573.341,182.564 573.337,182.584C572.07,189.082 570.267,194.742 567.969,199.575L567.966,199.581C563.266,209.442 556.383,214.917 547.721,216.485C538.792,218.115 530.874,215.179 524.153,207.21C524.131,207.184 524.109,207.157 524.087,207.131C519.319,201.286 515.319,195.094 512.094,188.579C509.616,183.84 506.826,177.201 503.75,168.649C504.642,171.13 506.995,172.784 509.631,172.784C510.385,172.784 511.121,172.648 511.809,172.392C513.92,177.87 515.868,182.314 517.654,185.724C520.69,191.868 524.449,197.687 528.93,203.18C533.99,209.179 539.881,211.565 546.603,210.336C553.397,209.107 558.638,204.626 562.324,196.892C564.42,192.483 566.047,187.314 567.203,181.387C568.07,176.689 568.938,170.979 569.805,164.257C569.877,163.534 569.95,162.865 570.022,162.251C570.094,161.637 570.167,161.167 570.239,160.842C570.311,160.516 570.347,160.173 570.347,159.812C570.636,157.715 570.998,155.077 571.432,151.897C572.082,147.921 571.251,144.596 568.938,141.922C566.914,139.681 564.131,138.489 560.589,138.344C557.409,138.2 554.482,139.103 551.807,141.055C548.844,143.368 547.037,146.367 546.386,150.054C545.88,152.439 545.374,156.956 544.868,163.606L544.868,164.148C544.796,164.293 544.76,164.438 544.76,164.582C544.254,170.798 543.784,175.099 543.35,177.484C543.35,177.629 543.332,177.864 543.296,178.189C543.26,178.514 543.206,178.749 543.134,178.894L541.724,176.075C540.568,173.328 538.652,168.16 535.978,160.57C535.544,159.125 535.255,158.294 535.11,158.077C534.966,157.571 534.659,156.685 534.189,155.42C533.719,154.156 533.376,153.198 533.159,152.547C531.569,148.21 529.003,145.319 525.461,143.874C521.991,142.5 518.666,142.789 515.486,144.741C512.306,146.548 510.101,149.331 508.872,153.089C507.644,157.137 507.897,161.546 509.631,166.317L509.631,166.534C510.35,168.531 511.051,170.421 511.736,172.202C511.156,172.409 510.542,172.532 509.914,172.56C509.734,172.703 509.631,172.784 509.631,172.784C509.631,172.784 509.598,172.742 509.536,172.664C509.598,172.672 509.631,172.675 509.631,172.675C509.631,172.675 509.601,172.637 509.544,172.566C509.514,172.566 509.485,172.565 509.455,172.564L509.438,172.543C509.476,172.548 509.508,172.553 509.536,172.556C508.75,171.577 503.381,164.943 503.381,166.32C503.381,166.356 503.381,166.392 503.382,166.428C503.382,166.892 503.423,167.322 503.5,167.72ZM509.536,172.664C509.375,172.644 509.021,172.591 508.561,172.475C508.854,172.526 509.152,172.556 509.455,172.564C509.486,172.602 509.513,172.636 509.536,172.664ZM508.561,172.475C507.472,172.286 506.464,171.812 505.633,171.12C506.631,171.875 507.758,172.272 508.561,172.475ZM505.633,171.12C504.656,170.382 503.803,169.3 503.5,167.72C503.521,167.781 503.541,167.842 503.563,167.903C503.453,167.455 503.389,166.965 503.382,166.428C503.382,165.099 508.384,171.235 509.438,172.543C508.707,172.437 506.079,171.93 504.535,169.936C504.85,170.379 505.22,170.777 505.633,171.12ZM817.63,188.804L811.407,182.58C811.407,174.906 811.443,168.458 811.515,163.239L811.515,160.98C811.344,162.155 811.07,163.315 810.697,164.459C809.163,169.17 806.206,172.677 801.829,174.982C797.724,177.183 793.259,177.828 788.42,176.829C786.63,176.459 784.921,175.886 783.295,175.104C783.233,176.078 783.178,177.122 783.138,178.194C783.065,182.741 782.98,185.482 782.908,186.382C782.432,193.732 781.545,199.262 780.373,202.949C779.337,206.44 777.728,209.232 775.67,211.394C775.635,211.43 775.599,211.467 775.563,211.503C772.48,214.586 768.777,216.056 764.46,215.933C764.394,215.931 764.329,215.928 764.263,215.924C755.311,215.385 749.752,211.242 747.164,204.123C747.145,204.071 747.126,204.017 747.108,203.964C746.403,201.847 745.878,199.076 745.613,195.636C745.608,195.563 745.603,195.49 745.6,195.417C745.525,193.608 745.52,190.862 745.595,187.18L745.595,182.905L745.595,182.58C745.595,180.778 745.597,179.043 745.601,177.377C745.266,179.818 744.705,182.262 743.917,184.708C740.376,195.751 732.839,204.263 721.122,210.079C721.114,210.083 721.106,210.087 721.098,210.091C716.043,212.574 709.854,213.553 702.494,212.755C695.964,212.066 690.531,210.318 686.16,207.661C678.865,203.25 673.451,197.34 669.888,189.959C669.873,189.93 669.859,189.9 669.845,189.87C666.634,182.939 665.333,175.753 665.925,168.315C666.515,160.891 668.765,154.168 672.645,148.136C676.519,142.115 681.51,137.681 687.581,134.793C687.917,134.55 688.28,134.339 688.667,134.165C700.048,129.031 711.002,128.906 721.527,133.607C730.818,137.702 737.73,144.731 742.165,154.789C743.978,158.871 745.141,162.961 745.659,167.058C745.672,165.719 745.687,164.446 745.703,163.239L745.703,156.45C745.703,155.6 745.722,154.575 745.761,153.376C745.794,152.357 745.812,151.683 745.812,151.355L745.812,150.054C745.812,144.836 747.438,140.423 750.569,136.77C750.583,136.754 750.597,136.738 750.611,136.722C753.691,133.201 757.544,131.17 762.165,130.62C762.266,130.608 762.367,130.598 762.469,130.591C767.311,130.253 771.549,131.732 775.168,135.062C779.243,133.429 783.952,133 789.326,133.918C789.338,133.92 789.349,133.922 789.361,133.924C794.012,134.745 798.181,136.511 801.875,139.201C805.856,142.101 808.589,145.651 810.161,149.78C810.167,149.795 810.172,149.809 810.178,149.823C810.843,151.61 811.291,153.366 811.529,155.092C811.538,154.566 811.553,153.994 811.573,153.376C811.606,152.357 811.624,151.683 811.624,151.355L811.624,150.054C811.624,144.836 813.25,140.423 816.381,136.77C816.395,136.754 816.409,136.738 816.423,136.722C819.503,133.201 823.356,131.17 827.977,130.62C828.078,130.608 828.179,130.598 828.281,130.591C833.105,130.255 837.328,131.721 840.939,135.024C844.976,133.375 849.594,132.851 854.819,133.56C854.837,133.563 854.855,133.565 854.873,133.568C859.637,134.257 863.851,135.829 867.528,138.259C872.011,135.049 877.384,133.514 883.677,133.724C883.689,133.724 883.701,133.725 883.714,133.725C888.401,133.909 892.765,135.131 896.809,137.383C901.1,139.772 904.229,142.911 906.285,146.702C909.707,152.791 911.728,163.524 911.728,179.002C911.728,180.214 911.716,181.395 911.692,182.545C911.753,182.448 911.815,182.353 911.879,182.257C911.949,182.152 912.023,182.048 912.1,181.947C915.104,177.987 919.267,176.23 924.729,177.05C924.777,177.057 924.825,177.065 924.872,177.073C926.266,177.315 927.802,177.799 929.464,178.564C930.641,178.004 931.842,177.555 933.067,177.212C933.264,177.157 933.464,177.111 933.666,177.076C938.076,176.297 941.807,177.275 944.92,179.74C944.969,179.779 945.018,179.819 945.066,179.859C947.406,181.829 948.966,184.403 949.635,187.641C949.638,187.489 949.641,187.336 949.644,187.18L949.644,182.905L955.861,189.122C955.824,191.707 955.835,193.647 955.894,194.94C956.111,197.904 956.509,200.18 957.087,201.771C958.822,206.541 962.652,209.179 968.58,209.685C970.82,209.902 972.736,208.926 974.326,206.758C975.266,205.457 975.988,203.614 976.494,201.229C976.856,199.711 977.217,197.434 977.579,194.398C977.94,190.712 978.193,188.182 978.337,186.809L978.337,185.616C978.699,180.99 979.096,177.376 979.53,174.774C980.108,171.449 980.759,169.208 981.482,168.052C982.277,166.967 983.216,166.317 984.301,166.1C984.879,165.883 985.349,166.028 985.71,166.534C987.083,168.413 987.987,170.762 988.421,173.581C988.71,175.75 988.746,178.605 988.529,182.146C988.385,184.098 988.276,185.435 988.204,186.158C987.842,190.061 987.662,193.025 987.662,195.049C987.662,198.518 988.168,201.409 989.18,203.722C990.842,207.553 993.516,209.758 997.203,210.336C1001.47,210.914 1004.9,208.854 1007.5,204.156C1010.18,199.53 1011.59,190.784 1011.73,177.918C1011.88,165.486 1010.83,157.209 1008.59,153.089C1007,150.343 1004.74,147.885 1001.81,145.717C998.883,143.548 995.721,142.03 992.324,141.163C988.71,140.151 985.313,140.115 982.132,141.055C980.614,141.488 979.133,142.175 977.687,143.115C977.036,141.886 976.169,140.765 975.085,139.754C972.772,137.585 970.061,136.609 966.953,136.826C963.917,137.188 961.388,138.525 959.364,140.838C957.195,143.368 956.111,146.44 956.111,150.054L956.111,151.355C956.111,151.716 956.093,152.457 956.057,153.577C956.021,154.698 956.003,155.655 956.003,156.45L956.003,163.281C955.93,168.485 955.894,174.918 955.894,182.58L955.894,187.242C955.883,187.785 955.874,188.305 955.866,188.802L949.644,182.58C949.644,174.906 949.68,168.458 949.753,163.239L949.753,156.45C949.753,155.6 949.771,154.575 949.81,153.376C949.843,152.357 949.861,151.683 949.861,151.355L949.861,150.054C949.861,144.836 951.488,140.423 954.618,136.77C954.632,136.754 954.646,136.738 954.66,136.722C957.741,133.201 961.594,131.17 966.214,130.62C966.315,130.608 966.417,130.598 966.518,130.591C971.42,130.249 975.702,131.769 979.351,135.186C979.402,135.234 979.452,135.281 979.502,135.329C979.796,135.23 980.091,135.138 980.387,135.053C984.618,133.809 989.135,133.792 993.903,135.116C998.065,136.183 1001.94,138.037 1005.53,140.695C1009.2,143.412 1012,146.516 1014,149.958C1014.02,150.006 1014.05,150.055 1014.08,150.103C1016.6,154.739 1018.14,164.002 1017.98,177.989C1017.82,192.334 1015.92,202.045 1012.94,207.233C1008.82,214.65 1003.11,217.445 996.363,216.529C996.32,216.523 996.277,216.517 996.234,216.51C990.417,215.598 986.078,212.265 983.452,206.225C983.058,205.323 982.715,204.354 982.43,203.317C981.702,206.352 980.635,208.697 979.393,210.417C979.384,210.43 979.375,210.442 979.366,210.454C976.261,214.688 972.386,216.322 968.013,215.91C959.251,215.152 953.78,210.966 951.213,203.907C950.492,201.923 949.931,199.094 949.661,195.396C949.657,195.339 949.653,195.281 949.651,195.224C949.635,194.888 949.623,194.51 949.613,194.091C949.327,195.314 948.874,196.485 948.262,197.608L948.258,197.615C945.949,201.836 943.821,205.129 941.909,207.518C941.883,207.551 941.857,207.583 941.83,207.615C938.433,211.692 934.917,213.633 931.761,214.117C927.544,214.855 923.416,213.665 919.58,209.965C917.928,208.389 915.835,205.854 913.363,202.311C913.347,202.288 913.33,202.264 913.314,202.24C912.123,200.482 911.217,198.694 910.58,196.883C909.715,202.624 908.392,206.997 906.71,210.017C906.705,210.024 906.701,210.032 906.697,210.039C902.624,217.279 897.009,220.155 890.336,219.483C884.316,218.9 879.778,215.66 876.998,209.405C876.958,209.315 876.92,209.224 876.885,209.132C876.209,207.395 875.68,205.476 875.31,203.371C875.299,203.406 875.289,203.442 875.278,203.477C874.24,207.193 872.483,210.21 870.107,212.587C870.009,212.685 869.908,212.78 869.803,212.871C866.854,215.451 863.519,216.694 859.833,216.694C859.746,216.694 859.659,216.693 859.573,216.689C856.6,216.565 853.757,215.549 851.094,213.505C848.697,211.665 846.882,209.353 845.655,206.565C845.631,206.51 845.608,206.455 845.585,206.4C845.287,205.664 845.009,204.88 844.755,204.048C844.031,206.438 842.994,208.525 841.685,210.326C841.623,210.411 841.559,210.495 841.493,210.577C838.828,213.876 835.348,215.671 831.034,215.925C830.937,215.93 830.84,215.934 830.743,215.935C821.655,216.044 815.847,212.071 813.001,204.517C812.982,204.467 812.964,204.416 812.946,204.366C812.235,202.322 811.689,199.443 811.423,195.711C811.418,195.649 811.415,195.587 811.412,195.526C811.337,193.717 811.332,190.971 811.407,187.288L811.407,182.905L811.407,182.589L817.63,188.804C817.629,188.921 817.627,189.037 817.625,189.152C817.285,189.115 814.291,188.735 812.585,186.558C813.714,188.123 815.55,189.145 817.625,189.155C817.587,191.803 817.597,193.839 817.657,195.265C817.874,198.301 818.271,200.65 818.849,202.313C820.729,207.3 824.668,209.758 830.667,209.685C833.125,209.541 835.113,208.529 836.631,206.65C837.787,205.059 838.618,203.144 839.124,200.903C839.558,198.952 839.883,196.639 840.1,193.964C840.317,192.085 840.461,189.519 840.534,186.266C840.534,185.977 840.552,185.724 840.588,185.507C840.624,185.291 840.642,185.11 840.642,184.965C840.859,180.628 841.112,177.231 841.401,174.774C841.835,171.593 842.485,169.353 843.353,168.052C844.003,166.895 844.979,166.136 846.28,165.775C847.075,165.558 847.617,165.666 847.906,166.1C848.991,167.618 849.641,169.895 849.858,172.931C850.003,175.388 849.93,178.785 849.641,183.122C849.497,185.291 849.424,186.411 849.424,186.483C849.207,189.88 849.207,192.844 849.424,195.374C849.786,198.843 850.436,201.735 851.376,204.048C852.171,205.855 853.346,207.354 854.9,208.547C856.454,209.74 858.098,210.372 859.833,210.444C862.001,210.444 863.953,209.685 865.688,208.168C867.35,206.505 868.543,204.373 869.265,201.771C870.205,198.663 871.036,194.868 871.759,190.386C872.193,187.423 872.626,183.556 873.06,178.785C873.205,176.978 873.367,175.189 873.548,173.418C873.729,171.648 873.855,170.437 873.928,169.786C874,169.714 874.036,169.569 874.036,169.353L874.036,168.702C874.108,167.762 874.47,167.256 875.12,167.184C876.132,167.04 876.999,167.329 877.722,168.052C879.818,170.003 881.083,172.75 881.517,176.292C881.878,178.46 881.842,182.219 881.409,187.567L881.409,188.218C881.047,192.266 880.903,195.374 880.975,197.542C881.12,201.156 881.698,204.264 882.71,206.866C884.444,210.77 887.191,212.902 890.95,213.263C895.214,213.697 898.648,211.601 901.25,206.975C904.069,201.915 905.478,192.591 905.478,179.002C905.478,164.98 903.924,155.222 900.816,149.728C899.298,146.909 896.949,144.614 893.769,142.844C890.588,141.073 887.155,140.115 883.469,139.97C876.963,139.754 871.723,141.922 867.748,146.476C864.061,142.789 859.471,140.549 853.978,139.754C848.123,138.958 843.244,140.079 839.341,143.115C838.546,141.597 837.715,140.476 836.847,139.754C834.534,137.585 831.824,136.609 828.716,136.826C825.68,137.188 823.15,138.525 821.126,140.838C818.958,143.368 817.874,146.44 817.874,150.054L817.874,151.355C817.874,151.716 817.856,152.457 817.819,153.577C817.783,154.698 817.765,155.655 817.765,156.45L817.765,163.281C817.693,168.485 817.657,174.918 817.657,182.58L817.657,187.351C817.647,187.853 817.638,188.338 817.63,188.804ZM955.861,189.122L949.644,182.898L949.644,182.589L955.866,188.802C955.864,188.91 955.863,189.017 955.861,189.122ZM688.219,134.492L688.22,134.496L688.226,134.493L688.225,134.489L688.219,134.492ZM752.062,150.054L752.062,151.355C752.062,151.716 752.044,152.457 752.008,153.577C751.971,154.698 751.953,155.655 751.953,156.45L751.953,163.281C751.881,168.485 751.845,174.918 751.845,182.58L751.845,187.242C751.773,190.784 751.773,193.422 751.845,195.157C752.062,197.976 752.459,200.253 753.038,201.988C754.772,206.758 758.639,209.324 764.639,209.685C767.168,209.758 769.337,208.89 771.144,207.083C772.59,205.565 773.674,203.578 774.397,201.12C775.481,197.723 776.24,192.663 776.673,185.941C776.746,185.146 776.818,182.508 776.89,178.026C777.107,172.027 777.432,168.485 777.866,167.401C778.227,166.317 778.806,165.63 779.601,165.341C780.035,165.124 780.468,165.233 780.902,165.666C783.432,168.341 786.359,170.021 789.684,170.708C793.009,171.395 796.081,170.979 798.9,169.461C801.791,167.943 803.743,165.63 804.755,162.522C805.839,159.197 805.694,155.692 804.321,152.005C803.164,148.969 801.123,146.385 798.195,144.253C795.268,142.121 791.961,140.729 788.275,140.079C782.348,139.067 777.469,140.079 773.638,143.115C772.698,141.524 771.831,140.404 771.036,139.754C768.723,137.585 766.012,136.609 762.904,136.826C759.868,137.188 757.338,138.525 755.314,140.838C753.146,143.368 752.062,146.44 752.062,150.054ZM687.028,135.242C685.187,136.698 684.987,138.614 684.987,139.862C684.987,138.074 685.75,136.407 687.028,135.242ZM782.069,171.086C782.178,171.037 782.287,170.986 782.396,170.931C782.182,171.038 781.962,171.133 781.737,171.215C781.847,171.175 781.958,171.132 782.069,171.086ZM929.548,185.724C927.379,184.351 925.464,183.52 923.801,183.231C920.91,182.797 918.669,183.628 917.079,185.724C915.923,187.459 915.489,189.501 915.778,191.85C916.067,194.199 916.971,196.494 918.489,198.735C920.657,201.843 922.464,204.084 923.91,205.457C926.078,207.553 928.355,208.384 930.74,207.951C932.764,207.662 934.86,206.216 937.029,203.614C938.764,201.445 940.679,198.446 942.775,194.615C943.643,193.025 943.914,191.254 943.588,189.302C943.263,187.351 942.414,185.797 941.04,184.64C939.306,183.267 937.21,182.797 934.752,183.231C932.945,183.737 931.21,184.568 929.548,185.724ZM689.695,140.716L688.26,134.634L688.328,134.952L689.693,140.717C684.92,143.117 680.99,146.717 677.901,151.517C674.577,156.685 672.661,162.45 672.155,168.811C671.649,175.171 672.769,181.315 675.516,187.242C678.552,193.531 683.178,198.554 689.394,202.313C693.08,204.553 697.67,205.963 703.164,206.541C709.163,207.192 714.223,206.505 718.343,204.481C728.39,199.494 734.931,192.266 737.967,182.797C740.714,174.268 740.208,165.775 736.449,157.318C732.69,148.789 726.872,142.789 718.993,139.32C710.103,135.344 700.851,135.525 691.237,139.862C691.237,139.934 691.165,140.007 691.02,140.079L690.804,140.187C690.429,140.356 690.06,140.533 689.695,140.716ZM704.139,168.485C704.573,169.208 705.224,169.678 706.091,169.895C706.958,170.112 707.79,170.039 708.585,169.678C710.319,168.883 711.837,168.63 713.138,168.919C713.644,168.991 713.97,169.172 714.114,169.461C714.548,170.69 714.006,171.882 712.488,173.039C709.018,175.569 706.452,177.195 704.79,177.918C703.417,178.424 702.513,178.568 702.079,178.352C701.573,178.135 701.031,177.376 700.453,176.075C699.803,174.629 699.044,172.208 698.176,168.811C697.743,167.509 697.706,166.317 698.068,165.233C698.212,164.582 698.538,164.112 699.044,163.823C699.405,163.679 699.839,163.787 700.345,164.148C701.501,164.654 702.766,166.1 704.139,168.485ZM401.399,188.802L395.177,182.58C395.177,174.906 395.213,168.458 395.285,163.239L395.285,157.52C395.191,158.437 395.066,159.352 394.911,160.266C393.622,168.407 390.109,175.48 384.366,181.481C384.334,181.514 384.302,181.546 384.27,181.578C378.995,186.853 372.626,190.115 365.154,191.348C363.121,191.686 361.046,191.862 358.929,191.871C359.341,195.32 359.537,198.151 359.537,200.361C359.537,205.69 357.59,210.207 353.676,213.904C353.599,213.976 353.52,214.047 353.44,214.115C350.05,217.007 346.159,218.749 341.772,219.348C341.754,219.35 341.737,219.352 341.719,219.355C336.957,219.962 332.714,219.23 328.965,217.305C328.95,217.298 328.935,217.29 328.92,217.282C324.543,214.989 321.553,211.507 319.974,206.828C319.773,206.416 319.572,205.933 319.385,205.373C319.197,204.808 319.09,204.219 319.069,203.624C319.047,203.512 318.984,203.193 318.926,202.961L318.962,203.058C318.816,202.569 318.657,201.937 318.515,201.154C318.406,200.555 318.333,200.058 318.286,199.677C317.564,195.782 317.095,193.177 316.875,191.862C314.998,180.898 314.111,171.171 314.186,162.684L314.186,162.668C314.346,148.648 317.119,137.593 322.166,129.422L322.17,129.415C329.318,117.875 340.381,111.936 355.532,111.928C364.205,111.848 372.019,114.346 378.977,119.414C379.015,119.442 379.053,119.471 379.091,119.499C385.21,124.174 389.73,130.239 392.62,137.718C392.633,137.751 392.645,137.785 392.658,137.819C394.187,141.989 395.095,146.136 395.393,150.253L395.393,150.054C395.393,144.836 397.02,140.423 400.151,136.77C400.165,136.754 400.178,136.738 400.192,136.722C403.273,133.201 407.126,131.17 411.747,130.62C411.848,130.608 411.949,130.598 412.051,130.591C416.893,130.253 421.13,131.732 424.75,135.062C428.824,133.429 433.534,133 438.908,133.918C438.92,133.92 438.931,133.922 438.942,133.924C443.594,134.745 447.763,136.511 451.457,139.201C455.438,142.101 458.17,145.651 459.743,149.78C459.749,149.795 459.754,149.809 459.759,149.823C461.67,154.952 461.787,159.833 460.279,164.459C458.744,169.17 455.788,172.677 451.41,174.982C447.306,177.183 442.84,177.828 438.002,176.829C436.212,176.459 434.503,175.886 432.877,175.104C432.815,176.078 432.759,177.122 432.72,178.194C432.646,182.741 432.561,185.482 432.49,186.382C432.014,193.732 431.127,199.262 429.955,202.949C428.919,206.44 427.31,209.232 425.251,211.394C425.216,211.43 425.181,211.467 425.145,211.503C422.062,214.586 418.358,216.056 414.042,215.933C413.976,215.931 413.91,215.928 413.844,215.924C404.892,215.385 399.334,211.242 396.746,204.123C396.726,204.071 396.708,204.017 396.69,203.964C395.984,201.847 395.46,199.076 395.195,195.636C395.189,195.563 395.185,195.49 395.182,195.417C395.107,193.608 395.102,190.862 395.177,187.18L395.177,182.905L395.177,182.589L401.399,188.802C401.356,191.569 401.365,193.687 401.427,195.157C401.643,197.976 402.041,200.253 402.619,201.988C404.354,206.758 408.221,209.324 414.22,209.685C416.75,209.758 418.919,208.89 420.726,207.083C422.171,205.565 423.255,203.578 423.978,201.12C425.062,197.723 425.821,192.663 426.255,185.941C426.327,185.146 426.4,182.508 426.472,178.026C426.689,172.027 427.014,168.485 427.448,167.401C427.809,166.317 428.387,165.63 429.182,165.341C429.616,165.124 430.05,165.233 430.484,165.666C433.013,168.341 435.941,170.021 439.266,170.708C442.591,171.395 445.663,170.979 448.482,169.461C451.373,167.943 453.324,165.63 454.336,162.522C455.421,159.197 455.276,155.692 453.903,152.005C452.746,148.969 450.704,146.385 447.777,144.253C444.849,142.121 441.543,140.729 437.856,140.079C431.929,139.067 427.05,140.079 423.219,143.115C422.28,141.524 421.412,140.404 420.617,139.754C418.304,137.585 415.594,136.609 412.486,136.826C409.45,137.188 406.92,138.525 404.896,140.838C402.728,143.368 401.643,146.44 401.643,150.054L401.643,151.355C401.643,151.716 401.625,152.457 401.589,153.577C401.553,154.698 401.535,155.655 401.535,156.45L401.535,163.281C401.463,168.485 401.427,174.918 401.427,182.58L401.427,187.242C401.416,187.783 401.406,188.303 401.399,188.802ZM431.651,171.086C431.76,171.037 431.869,170.986 431.978,170.931C431.763,171.038 431.543,171.133 431.318,171.215C431.429,171.175 431.54,171.132 431.651,171.086ZM325.315,203.397C325.459,203.831 325.604,204.156 325.748,204.373C326.76,207.698 328.784,210.155 331.82,211.745C334.494,213.119 337.53,213.589 340.927,213.155C344.108,212.721 346.927,211.456 349.384,209.36C351.986,206.903 353.287,203.903 353.287,200.361C353.287,198.193 353.071,195.374 352.637,191.904C352.492,190.025 352.348,188.652 352.203,187.784C352.059,186.483 351.95,185.544 351.878,184.965C356.143,185.76 360.226,185.833 364.13,185.182C370.273,184.17 375.514,181.496 379.851,177.159C384.694,172.099 387.657,166.136 388.741,159.269C389.825,152.909 389.175,146.476 386.79,139.97C384.332,133.61 380.501,128.442 375.297,124.466C369.442,120.202 362.865,118.105 355.564,118.178C342.843,118.178 333.482,123.021 327.483,132.706C322.929,140.079 320.58,150.09 320.436,162.739C320.363,170.907 321.231,180.267 323.038,190.82C323.255,192.121 323.724,194.723 324.447,198.626C324.447,198.771 324.52,199.241 324.664,200.036C324.809,200.831 324.917,201.301 324.989,201.445C325.206,202.313 325.315,202.963 325.315,203.397ZM487.778,149.727C489.083,150.317 490.305,151.058 491.448,151.942C491.485,151.971 491.522,152 491.558,152.029C495.613,155.317 497.852,159.54 498.288,164.627C498.726,168.803 498.968,179.811 498.968,197.651C498.968,203.49 496.752,208.057 492.492,211.43C489.277,214.012 485.272,215.506 480.406,215.713C480.318,215.717 480.229,215.719 480.141,215.719C475.449,215.719 471.397,214.368 467.981,211.793C463.521,208.546 461.127,204.182 460.785,198.709C460.415,193.303 460.247,187.103 460.284,180.108C460.321,173.123 460.531,167.864 460.894,164.344C460.929,163.782 461.032,163.166 461.242,162.506L461.244,162.497C461.887,158.272 463.997,154.729 467.67,151.919C467.686,151.908 467.701,151.896 467.717,151.884C468.935,150.971 470.22,150.217 471.573,149.626C470.668,149.031 469.766,148.326 468.87,147.505C468.862,147.498 468.855,147.491 468.847,147.484C466.631,145.432 464.138,142.389 461.439,138.311C459.017,134.891 457.62,131.265 457.181,127.459C456.655,122.901 457.659,119.135 459.832,116.124C462.891,111.65 467.357,109.673 473.376,110.697C475.197,110.964 477.26,111.652 479.525,112.849C481.527,111.744 483.358,111.067 484.971,110.751C489.918,109.74 493.997,110.831 497.297,113.623C497.313,113.637 497.329,113.651 497.345,113.664C500.044,115.995 501.741,119.009 502.355,122.75C502.958,126.428 502.368,129.767 500.691,132.784C498.052,137.671 495.555,141.62 493.226,144.648C493.195,144.689 493.163,144.73 493.13,144.77C491.38,146.932 489.579,148.56 487.778,149.727ZM467.347,164.04C467.202,164.329 467.13,164.582 467.13,164.799C466.769,168.196 466.57,173.31 466.534,180.141C466.498,186.971 466.66,193.025 467.022,198.301C467.238,201.843 468.792,204.662 471.684,206.758C474.069,208.565 476.888,209.469 480.141,209.469C483.538,209.324 486.357,208.348 488.597,206.541C491.344,204.373 492.718,201.409 492.718,197.651C492.718,180.086 492.501,169.28 492.067,165.233C491.778,161.835 490.296,159.053 487.622,156.884C485.381,155.149 482.67,154.282 479.49,154.282C476.454,154.282 473.78,155.149 471.467,156.884C469.009,158.763 467.636,161.149 467.347,164.04ZM479.598,120.238C476.852,118.286 474.467,117.166 472.443,116.877C469.118,116.298 466.624,117.238 464.962,119.696C463.588,121.575 463.064,123.924 463.389,126.743C463.715,129.562 464.781,132.236 466.588,134.766C468.973,138.38 471.142,141.091 473.093,142.898C475.695,145.283 478.297,146.259 480.9,145.825C483.357,145.536 485.815,143.874 488.272,140.838C490.441,138.019 492.754,134.332 495.211,129.779C496.223,127.972 496.548,125.966 496.187,123.761C495.826,121.557 494.85,119.768 493.26,118.395C491.38,116.804 489.031,116.298 486.212,116.877C484.333,117.238 482.128,118.358 479.598,120.238ZM601.209,115.724C601.337,115.703 601.467,115.684 601.602,115.669C602.032,115.587 602.515,115.53 603.044,115.512C608.871,114.938 612.984,114.58 615.384,114.434C623.409,113.914 630.251,113.77 635.899,113.99C644.197,114.149 650.73,114.945 655.51,116.277C655.523,116.281 655.536,116.284 655.549,116.288C659.561,117.435 662.43,118.845 664.234,120.254C668.203,123.224 670.042,126.978 670.056,131.313C670.162,136.073 668.091,140.146 663.35,143.232C661.147,144.696 657.887,146.031 653.493,147.038C653.453,147.048 653.412,147.056 653.372,147.065C647.893,148.206 640.514,148.917 631.232,149.146C627.767,149.247 624.604,149.314 621.741,149.344C621.751,149.451 621.761,149.561 621.771,149.675C628.484,149.772 634.492,150.143 639.784,150.782C645.103,151.365 649.456,152.408 652.865,153.821C652.906,153.838 652.947,153.856 652.988,153.874C655.624,155.034 657.643,156.41 659.119,157.886C661.709,160.477 663.009,163.611 663.009,167.293C663.009,167.466 663.002,167.639 662.988,167.812C662.712,171.115 661.429,173.847 659.227,176.049C657.886,177.39 656.082,178.62 653.781,179.612C650.924,180.905 647.137,181.874 642.391,182.394C637.019,183.021 631.048,183.187 624.478,182.877C624.546,184.889 624.688,186.914 624.904,188.953C625.011,189.323 625.091,189.727 625.133,190.169C626.407,197.47 625.626,203.654 623.131,208.733C621.049,213.012 617.961,215.787 614.029,217.232C610.232,218.628 605.978,218.57 601.288,216.671C601.223,216.645 601.158,216.618 601.094,216.589C599.924,216.069 599.044,215.454 598.38,214.832L598.374,214.826C596.344,213.437 594.528,211.506 593.015,208.979C591.325,206.333 589.738,202.542 588.385,197.552C588.38,197.533 588.375,197.515 588.37,197.496C586.631,190.844 585.391,181.74 584.71,170.177C584.489,166.862 584.303,161.606 584.157,154.41C584.156,154.367 584.155,154.325 584.155,154.282C584.155,153.995 584.083,149.658 583.939,141.27C583.939,141.234 583.938,141.199 583.938,141.163C583.938,137.16 583.916,134.718 583.848,133.836C583.84,133.727 583.835,133.618 583.832,133.509C583.714,128.671 585.621,124.404 589.83,120.894C591.895,119.121 594.551,117.649 597.844,116.584C598.374,116.348 599.035,116.11 599.84,115.909C600.288,115.797 600.747,115.735 601.209,115.724ZM602.44,210.011C602.585,210.3 602.982,210.589 603.633,210.878C606.669,212.107 609.415,212.269 611.873,211.366C614.33,210.462 616.21,208.674 617.511,205.999C619.535,201.879 620.004,196.856 618.92,190.929C618.92,190.784 618.884,190.712 618.812,190.712C618.233,185.797 618.053,180.954 618.27,176.183C627.088,176.978 634.894,176.978 641.689,176.183C645.664,175.75 648.844,174.991 651.23,173.906C652.748,173.256 653.94,172.497 654.808,171.629C655.964,170.473 656.615,169.027 656.759,167.293C656.759,165.341 656.073,163.679 654.699,162.305C653.687,161.293 652.278,160.39 650.471,159.595C647.507,158.366 643.713,157.499 639.087,156.993C632.509,156.197 624.811,155.836 615.993,155.908C615.993,154.896 615.957,154.065 615.884,153.415C615.812,153.126 615.776,152.62 615.776,151.897C615.704,151.824 615.667,151.572 615.667,151.138C615.667,151.066 615.649,150.939 615.613,150.758C615.577,150.578 615.559,150.451 615.559,150.379C615.415,148.789 615.342,147.741 615.342,147.235C615.198,146.223 615.125,144.849 615.125,143.115L618.161,143.115C621.848,143.115 626.148,143.042 631.063,142.898C639.882,142.681 646.893,142.03 652.097,140.946C655.567,140.151 658.169,139.175 659.903,138.019C662.578,136.284 663.879,134.08 663.807,131.405C663.807,128.948 662.686,126.888 660.446,125.225C659.072,124.141 656.868,123.165 653.832,122.298C649.423,121.069 643.387,120.382 635.725,120.238C630.232,120.021 623.582,120.165 615.776,120.671C613.391,120.816 609.271,121.177 603.416,121.756C603.054,121.756 602.765,121.792 602.548,121.864C602.332,121.864 602.187,121.9 602.115,121.972L601.356,121.972C600.778,122.117 600.38,122.262 600.163,122.406C597.561,123.201 595.465,124.285 593.875,125.659C591.273,127.827 590.008,130.393 590.08,133.357C590.152,134.296 590.188,136.898 590.188,141.163C590.333,149.62 590.405,153.993 590.405,154.282C590.55,161.366 590.731,166.534 590.947,169.786C591.598,180.845 592.754,189.555 594.417,195.916C595.573,200.18 596.874,203.433 598.32,205.674C599.477,207.625 600.85,209.071 602.44,210.011ZM621.617,149.673L621.708,149.674C621.673,149.56 621.634,149.45 621.593,149.346L621.482,149.347C621.53,149.454 621.575,149.563 621.617,149.673ZM621.798,150.015C621.803,150.097 621.806,150.179 621.808,150.261L621.81,150.267C621.81,150.205 621.81,150.131 621.806,150.047C621.803,150.036 621.801,150.025 621.798,150.015ZM1088.31,147.128C1090.05,145.126 1092.63,143.348 1096.18,142.026C1096.28,141.991 1096.38,141.958 1096.47,141.927C1098.2,141.379 1100.06,140.949 1102.04,140.646C1101.99,138.564 1102.01,136.733 1102.09,135.154L1102.09,133.574C1102.09,133.229 1102.11,132.886 1102.17,132.546C1102.2,132.387 1102.19,132.186 1102.19,131.947C1102.19,131.864 1102.19,131.781 1102.2,131.697C1102.41,126.457 1104.21,122.137 1107.46,118.677C1110.67,115.239 1114.62,113.361 1119.27,113.028L1119.28,113.027C1124.06,112.694 1128.16,113.975 1131.6,116.73C1135.42,119.691 1137.73,123.753 1138.39,129.004C1138.39,129.025 1138.39,129.047 1138.4,129.069C1138.73,131.941 1138.97,134.379 1139.14,136.383C1141.48,136.26 1143.72,136.326 1145.86,136.575C1149.99,136.993 1153.36,138.275 1156.04,140.235C1159.88,143.029 1162.1,146.804 1162.68,151.574C1162.69,151.653 1162.7,151.732 1162.7,151.811C1163.06,156.078 1161.94,159.798 1159.46,162.998C1159.42,163.046 1159.38,163.094 1159.34,163.142C1157.4,165.494 1154.78,167.444 1151.45,168.87C1149.11,169.952 1146.16,170.829 1142.59,171.449C1142.85,174.411 1143.09,177.594 1143.3,180.998C1143.31,181.005 1143.31,181.013 1143.31,181.02C1143.68,187.331 1143.86,191.971 1143.86,194.94C1143.86,194.996 1143.86,195.051 1143.86,195.107C1143.68,201.886 1142.09,207.315 1139.37,211.473C1139.36,211.491 1139.35,211.508 1139.34,211.526C1135.64,217.076 1130.78,219.523 1125,219.292L1124.98,219.291C1119.8,219.07 1115.23,216.678 1111.48,211.718C1111.48,211.713 1111.47,211.707 1111.47,211.701C1108.45,207.678 1106.56,202.549 1106.01,196.241C1106.01,196.203 1106.01,196.166 1106,196.129C1105.87,194.207 1105.74,192.749 1105.61,191.755C1105.57,191.481 1105.55,191.205 1105.55,190.929C1105.55,190.709 1105.48,190.055 1105.37,188.962C1105.24,187.721 1105.17,186.812 1105.14,186.254C1105,185.14 1104.93,184.297 1104.91,183.735C1104.61,180.586 1104.36,177.758 1104.18,175.252C1101.32,175.035 1098.76,174.519 1096.52,173.736C1096.49,173.727 1096.47,173.718 1096.44,173.708C1096.25,173.639 1096.06,173.568 1095.88,173.496C1094.57,175.921 1092.64,178.204 1090.01,180.305C1089.96,180.345 1089.91,180.385 1089.86,180.424C1089.64,180.588 1089.42,180.75 1089.19,180.91C1093.59,182.557 1096.66,186.149 1098.21,191.902C1098.23,191.973 1098.25,192.044 1098.27,192.115C1099.39,196.96 1098.63,201.405 1096.04,205.461L1096.03,205.476C1094.29,208.182 1091.81,210.638 1088.53,212.764C1088.45,212.817 1088.37,212.867 1088.28,212.916C1086.29,214.076 1083.89,215.205 1081.08,216.282C1080.91,216.347 1080.74,216.404 1080.56,216.454C1078.33,217.093 1076.61,217.526 1075.41,217.766C1075.29,217.789 1075.17,217.81 1075.05,217.827C1066.28,219.056 1057.73,218.134 1049.41,215.06C1041.01,211.958 1034.14,207.199 1028.76,200.833C1023.06,194.167 1020,186.829 1019.48,178.867C1019.48,178.856 1019.48,178.845 1019.48,178.834C1018.95,170.067 1021.71,161.88 1027.93,154.339C1035.77,144.645 1045.67,139.289 1057.56,138.192C1057.6,138.189 1057.63,138.186 1057.67,138.183C1067.83,137.428 1076.97,139.682 1085.11,144.88C1086.25,145.594 1087.32,146.344 1088.31,147.128ZM1052.39,177.267C1058.53,181.387 1065.4,182.616 1072.99,180.954C1078.56,179.653 1082.93,177.81 1086.11,175.424C1089.36,172.822 1091.2,169.895 1091.64,166.642C1092.07,163.679 1091.4,160.733 1089.63,157.806C1087.86,154.878 1085.24,152.33 1081.77,150.162C1074.76,145.681 1066.88,143.765 1058.14,144.416C1047.94,145.355 1039.49,149.981 1032.77,158.294C1027.63,164.51 1025.28,171.232 1025.72,178.46C1026.15,185.11 1028.75,191.218 1033.52,196.783C1038.22,202.349 1044.24,206.487 1051.58,209.198C1058.91,211.908 1066.45,212.721 1074.18,211.637C1075.27,211.42 1076.82,211.023 1078.84,210.444C1081.3,209.505 1083.4,208.529 1085.13,207.517C1087.59,205.927 1089.47,204.12 1090.77,202.096C1092.43,199.494 1092.9,196.639 1092.18,193.531C1090.95,188.977 1088.28,186.519 1084.16,186.158C1082.86,186.086 1081.19,186.266 1079.17,186.7C1078.81,186.772 1078.01,186.953 1076.78,187.242C1076.57,187.314 1076.17,187.423 1075.59,187.567C1075.38,187.784 1074.98,187.893 1074.4,187.893C1071.22,188.832 1068.8,189.338 1067.13,189.411C1064.32,189.627 1061.89,189.049 1059.87,187.676C1056.18,184.785 1053.69,181.315 1052.39,177.267ZM1133.16,143.44L1133.16,140.729C1133.09,138.489 1132.77,134.838 1132.19,129.779C1131.75,126.309 1130.27,123.599 1127.74,121.647C1125.5,119.84 1122.83,119.045 1119.72,119.262C1116.68,119.479 1114.12,120.708 1112.02,122.948C1109.78,125.334 1108.59,128.333 1108.44,131.947C1108.44,132.598 1108.41,133.14 1108.34,133.574L1108.34,135.308C1108.19,138.127 1108.26,141.814 1108.55,146.367C1104.72,146.44 1101.32,146.946 1098.36,147.885C1095.83,148.825 1093.99,150.017 1092.83,151.463C1091.17,153.342 1090.48,155.619 1090.77,158.294C1091.2,162.92 1093.81,166.1 1098.58,167.835C1101.68,168.919 1105.52,169.316 1110.07,169.027C1110.21,172.641 1110.58,177.412 1111.15,183.339C1111.15,183.773 1111.23,184.568 1111.37,185.724C1111.37,186.086 1111.44,186.953 1111.59,188.326C1111.73,189.772 1111.8,190.639 1111.8,190.929C1111.95,192.013 1112.09,193.603 1112.24,195.699C1112.67,200.686 1114.08,204.77 1116.47,207.951C1118.92,211.203 1121.85,212.902 1125.25,213.047C1128.86,213.191 1131.83,211.529 1134.14,208.059C1136.31,204.734 1137.46,200.361 1137.61,194.94C1137.61,192.049 1137.43,187.531 1137.07,181.387C1136.7,175.605 1136.27,170.473 1135.77,165.992C1141.4,165.558 1145.78,164.618 1148.88,163.173C1151.27,162.161 1153.15,160.823 1154.52,159.161C1156.04,157.209 1156.69,154.933 1156.47,152.33C1156.11,149.367 1154.74,147.018 1152.35,145.283C1150.48,143.91 1148.09,143.078 1145.2,142.789C1141.51,142.356 1137.5,142.573 1133.16,143.44Z" style="fill:rgb(245,114,242);"/>
        </g>
    </g>
</svg>
